# File generated by ImageToStl.com - Free Image and 3D model conversion tools

o obj1
v -0.013 0.003 0.03
v -0.013 0.003 0.06
v -0.013 -0.003 0.06
v -0.0045 0.003 0.06
v -0.0045 0.003 0.03
v -0.00411177 0.00305111 0.045
v -0.00411177 0.00305111 0.0375
v -0.00375 0.00320096 0.045
v -0.00375 0.00320096 0.0375
v -0.00343934 0.00343934 0.045
v -0.00343934 0.00343934 0.0375
v -0.00320096 0.00375 0.045
v -0.00320096 0.00375 0.0375
v -0.00305111 0.00411177 0.045
v -0.00305111 0.00411177 0.0375
v -0.003 0.0045 0.03
v -0.00305111 0.00411177 0.03
v -0.003 0.0045 0.06
v -0.00411177 0.00305111 0.06
v -0.00375 0.00320096 0.06
v -0.015 -0.015 0.06
v -0.015 0.015 0.06
v -0.0045 -0.003 0.06
v -0.003 -0.0045 0.06
v -0.003 -0.013 0.06
v -0.013 -0.003 0.03
v -0.0045 -0.003 0.03
v -0.00411177 0.00305111 0.0525
v -0.00375 0.00320096 0.0525
v -0.00343934 0.00343934 0.0525
v -0.00320096 0.00375 0.0525
v -0.00305111 0.00411177 0.0525
v -0.003 0.013 0.03
v -0.00411177 0.00305111 0.03
v -0.00411177 -0.00305111 0.03
v 0.013 -0.003 0.03
v 0.013 -0.003 0.06
v 0.013 0.003 0.06
v 0.0045 -0.003 0.06
v 0.0045 -0.003 0.03
v 0.00411177 -0.00305111 0.045
v 0.00411177 -0.00305111 0.0375
v 0.00375 -0.00320096 0.045
v 0.00375 -0.00320096 0.0375
v 0.00343934 -0.00343934 0.045
v 0.00343934 -0.00343934 0.0375
v 0.00320096 -0.00375 0.045
v 0.00320096 -0.00375 0.0375
v 0.00305111 -0.00411177 0.045
v 0.00305111 -0.00411177 0.0375
v 0.003 -0.0045 0.03
v 0.00305111 -0.00411177 0.03
v 0.003 -0.0045 0.06
v 0.00305111 -0.00411177 0.06
v 0.015 -0.015 0.06
v 0.003 -0.013 0.06
v 0.0045 0.003 0.06
v 0.003 0.0045 0.06
v 0.003 0.013 0.06
v 0.013 0.003 0.03
v 0.0045 0.003 0.03
v -0.003 -0.013 0.03
v 0.003 -0.013 0.03
v -0.003 -0.0045 0.03
v -0.00305111 -0.00411177 0.045
v -0.00305111 -0.00411177 0.0375
v -0.00320096 -0.00375 0.045
v -0.00320096 -0.00375 0.0375
v -0.00343934 -0.00343934 0.045
v -0.00343934 -0.00343934 0.0375
v -0.00375 -0.00320096 0.045
v -0.00375 -0.00320096 0.0375
v -0.00411177 -0.00305111 0.045
v -0.00411177 -0.00305111 0.0375
v -0.00305111 -0.00411177 0.03
v -0.00320096 -0.00375 0.03
v 0.00320096 -0.00375 0.03
v -0.00343934 -0.00343934 0.03
v 0.00343934 -0.00343934 0.03
v -0.00343934 0.00343934 0.03
v 0.00343934 0.00343934 0.03
v -0.00320096 0.00375 0.03
v 0.00320096 0.00375 0.03
v 0.00305111 0.00411177 0.03
v 0.003 0.0045 0.03
v 0.003 0.013 0.03
v -0.00305111 -0.00411177 0.06
v -0.00305111 -0.00411177 0.0525
v -0.00320096 -0.00375 0.0525
v -0.00343934 -0.00343934 0.0525
v -0.00375 -0.00320096 0.0525
v -0.00411177 -0.00305111 0.0525
v -0.00411177 -0.00305111 0.06
v -0.00320096 -0.00375 0.06
v -0.00343934 -0.00343934 0.06
v -0.00375 -0.00320096 0.03
v -0.00375 0.00320096 0.03
v 0.00375 -0.00320096 0.03
v 0.00375 0.00320096 0.03
v 0.00411177 0.00305111 0.03
v 0.00375 0.00320096 0.0375
v 0.00411177 0.00305111 0.0375
v 0.00411177 0.00305111 0.045
v 0.00343934 0.00343934 0.0375
v 0.00375 0.00320096 0.045
v 0.00411177 0.00305111 0.0525
v 0.00411177 0.00305111 0.06
v 0.00411177 -0.00305111 0.03
v 0.00320096 0.00375 0.0375
v 0.00343934 0.00343934 0.045
v 0.00375 0.00320096 0.0525
v 0.00305111 0.00411177 0.0375
v 0.00320096 0.00375 0.045
v 0.00343934 0.00343934 0.0525
v 0.00375 0.00320096 0.06
v 0.00305111 0.00411177 0.045
v 0.00305111 0.00411177 0.0525
v 0.00320096 0.00375 0.0525
v 0.00320096 0.00375 0.06
v 0.00343934 0.00343934 0.06
v -0.003 0.013 0.06
v 0.00305111 0.00411177 0.06
v 0.015 0.015 0
v 0.015 -0.015 0
v -0.015 -0.015 0
v 0.015 0.015 0.06
v -0.015 0.015 0
v -0.00305111 0.00411177 0.06
v -0.00320096 0.00375 0.06
v -0.00343934 0.00343934 0.06
v 0.00305111 -0.00411177 0.0525
v 0.00320096 -0.00375 0.0525
v 0.00411177 -0.00305111 0.06
v 0.00411177 -0.00305111 0.0525
v 0.00375 -0.00320096 0.0525
v 0.00343934 -0.00343934 0.0525
v 0.00375 -0.00320096 0.06
v 0.00320096 -0.00375 0.06
v 0.00343934 -0.00343934 0.06
v -0.00375 -0.00320096 0.06
vn 1 0 -0
vn 0 -1 0
vn 0.13052 -0.99145 0
vn 0.38268 -0.92388 0
vn 0.60877 -0.79335 0
vn 0.79335 -0.60877 0
vn 0.92388 -0.38268 0
vn 0.99145 -0.13052 0
vn 0 0 1
vn -0 1 0
vn -1 0 0
vn -0.13052 0.99145 0
vn -0.38268 0.92388 0
vn -0.60877 0.79335 0
vn -0.79335 0.60877 0
vn -0.92388 0.38268 0
vn -0.99145 0.13052 0
vn 0.99145 0.13052 0
vn 0.92388 0.38268 0
vn 0.79335 0.60877 0
vn 0.60877 0.79335 0
vn 0.38268 0.92388 0
vn 0.13052 0.99145 0
vn -0.60877 -0.79335 0
vn -0.38268 -0.92388 0
vn -0.13052 -0.99145 0
vn -0.79335 -0.60877 0
vn -0.92388 -0.38268 0
vn -0.99145 -0.13052 0
vn 0 -0 -1
f 1//1 2//1 3//1
f 2//2 1//2 4//2
f 1//2 5//2 4//2
f 4//3 5//3 6//3
f 5//3 7//3 6//3
f 6//4 7//4 8//4
f 7//4 9//4 8//4
f 8//5 9//5 10//5
f 9//5 11//5 10//5
f 10//6 11//6 12//6
f 11//6 13//6 12//6
f 12//7 13//7 14//7
f 13//7 15//7 14//7
f 14//8 15//8 16//8
f 15//8 17//8 16//8
f 2//9 4//9 18//9
f 4//9 19//9 18//9
f 18//9 19//9 20//9
f 3//9 2//9 21//9
f 2//9 22//9 21//9
f 23//9 3//9 24//9
f 3//9 25//9 24//9
f 3//10 23//10 26//10
f 23//10 27//10 26//10
f 3//1 26//1 1//1
f 1//9 26//9 27//9
f 5//9 1//9 27//9
f 19//3 4//3 28//3
f 4//3 6//3 28//3
f 28//4 6//4 29//4
f 6//4 8//4 29//4
f 29//5 8//5 30//5
f 8//5 10//5 30//5
f 30//6 10//6 31//6
f 10//6 12//6 31//6
f 31//7 12//7 32//7
f 12//7 14//7 32//7
f 32//8 14//8 18//8
f 14//8 16//8 18//8
f 18//1 16//1 33//1
f 34//9 5//9 35//9
f 5//9 27//9 35//9
f 5//3 34//3 7//3
f 34//4 9//4 7//4
f 36//11 37//11 38//11
f 37//10 36//10 39//10
f 36//10 40//10 39//10
f 39//12 40//12 41//12
f 40//12 42//12 41//12
f 41//13 42//13 43//13
f 42//13 44//13 43//13
f 43//14 44//14 45//14
f 44//14 46//14 45//14
f 45//15 46//15 47//15
f 46//15 48//15 47//15
f 47//16 48//16 49//16
f 48//16 50//16 49//16
f 49//17 50//17 51//17
f 50//17 52//17 51//17
f 37//9 39//9 53//9
f 39//9 54//9 53//9
f 38//9 37//9 55//9
f 37//9 56//9 55//9
f 55//9 56//9 25//9
f 57//9 38//9 58//9
f 38//9 59//9 58//9
f 38//2 57//2 60//2
f 57//2 61//2 60//2
f 38//11 60//11 36//11
f 36//9 60//9 61//9
f 40//9 36//9 61//9
f 25//10 56//10 62//10
f 56//10 63//10 62//10
f 25//1 62//1 24//1
f 62//1 64//1 24//1
f 24//18 64//18 65//18
f 64//18 66//18 65//18
f 65//19 66//19 67//19
f 66//19 68//19 67//19
f 67//20 68//20 69//20
f 68//20 70//20 69//20
f 69//21 70//21 71//21
f 70//21 72//21 71//21
f 71//22 72//22 73//22
f 72//22 74//22 73//22
f 73//23 74//23 27//23
f 74//23 35//23 27//23
f 62//9 63//9 64//9
f 63//9 51//9 64//9
f 64//9 51//9 75//9
f 51//9 52//9 75//9
f 75//9 52//9 76//9
f 52//9 77//9 76//9
f 76//9 77//9 78//9
f 77//9 79//9 78//9
f 78//9 79//9 80//9
f 79//9 81//9 80//9
f 80//9 81//9 82//9
f 81//9 83//9 82//9
f 82//9 83//9 17//9
f 83//9 84//9 17//9
f 17//9 84//9 16//9
f 84//9 85//9 16//9
f 16//9 85//9 33//9
f 85//9 86//9 33//9
f 87//18 24//18 88//18
f 24//18 65//18 88//18
f 88//19 65//19 89//19
f 65//19 67//19 89//19
f 89//20 67//20 90//20
f 67//20 69//20 90//20
f 90//21 69//21 91//21
f 69//21 71//21 91//21
f 91//22 71//22 92//22
f 71//22 73//22 92//22
f 92//23 73//23 23//23
f 73//23 27//23 23//23
f 24//9 87//9 93//9
f 87//9 94//9 93//9
f 93//9 94//9 95//9
f 64//18 75//18 66//18
f 75//19 68//19 66//19
f 93//9 23//9 24//9
f 23//23 93//23 92//23
f 93//22 91//22 92//22
f 96//22 35//22 74//22
f 35//9 96//9 34//9
f 96//9 97//9 34//9
f 34//4 97//4 9//4
f 97//5 11//5 9//5
f 78//21 96//21 72//21
f 96//22 74//22 72//22
f 96//9 78//9 97//9
f 78//9 80//9 97//9
f 97//5 80//5 11//5
f 80//6 13//6 11//6
f 76//20 78//20 70//20
f 78//21 72//21 70//21
f 80//6 82//6 13//6
f 82//7 15//7 13//7
f 79//15 77//15 48//15
f 77//16 50//16 48//16
f 98//14 79//14 46//14
f 79//15 48//15 46//15
f 79//9 98//9 99//9
f 98//9 100//9 99//9
f 99//9 81//9 79//9
f 81//24 99//24 101//24
f 99//25 102//25 101//25
f 101//25 102//25 103//25
f 102//26 61//26 103//26
f 103//26 61//26 57//26
f 83//27 81//27 104//27
f 81//24 101//24 104//24
f 104//24 101//24 105//24
f 101//25 103//25 105//25
f 105//25 103//25 106//25
f 103//26 57//26 106//26
f 106//26 57//26 107//26
f 99//25 100//25 102//25
f 100//26 61//26 102//26
f 108//13 98//13 44//13
f 98//14 46//14 44//14
f 98//9 108//9 100//9
f 108//9 61//9 100//9
f 40//12 108//12 42//12
f 108//13 44//13 42//13
f 108//9 40//9 61//9
f 77//16 52//16 50//16
f 75//19 76//19 68//19
f 76//20 70//20 68//20
f 51//11 63//11 53//11
f 63//11 56//11 53//11
f 82//7 17//7 15//7
f 84//28 83//28 109//28
f 83//27 104//27 109//27
f 109//27 104//27 110//27
f 104//24 105//24 110//24
f 110//24 105//24 111//24
f 105//25 106//25 111//25
f 111//25 106//25 107//25
f 85//29 84//29 112//29
f 84//28 109//28 112//28
f 112//28 109//28 113//28
f 109//27 110//27 113//27
f 113//27 110//27 114//27
f 110//24 111//24 114//24
f 114//24 111//24 115//24
f 111//25 107//25 115//25
f 86//11 85//11 58//11
f 85//29 116//29 58//29
f 58//29 116//29 117//29
f 116//28 118//28 117//28
f 117//28 118//28 119//28
f 118//27 120//27 119//27
f 33//2 86//2 121//2
f 86//2 59//2 121//2
f 33//1 121//1 18//1
f 59//11 86//11 58//11
f 107//9 57//9 58//9
f 115//9 107//9 58//9
f 122//29 58//29 117//29
f 58//9 122//9 119//9
f 119//28 122//28 117//28
f 119//9 120//9 58//9
f 120//9 115//9 58//9
f 115//24 120//24 114//24
f 120//27 118//27 114//27
f 114//27 118//27 113//27
f 118//28 116//28 113//28
f 113//28 116//28 112//28
f 116//29 85//29 112//29
f 123//30 124//30 125//30
f 124//1 123//1 55//1
f 123//1 126//1 55//1
f 124//2 55//2 21//2
f 125//2 124//2 21//2
f 125//11 21//11 22//11
f 127//11 125//11 22//11
f 125//30 127//30 123//30
f 123//10 127//10 126//10
f 127//10 22//10 126//10
f 121//9 59//9 22//9
f 59//9 126//9 22//9
f 18//9 121//9 2//9
f 121//9 22//9 2//9
f 18//8 128//8 32//8
f 128//7 31//7 32//7
f 128//9 18//9 129//9
f 18//9 130//9 129//9
f 128//7 129//7 31//7
f 129//6 30//6 31//6
f 20//4 19//4 28//4
f 130//5 20//5 29//5
f 20//4 28//4 29//4
f 20//9 130//9 18//9
f 129//6 130//6 30//6
f 130//5 29//5 30//5
f 21//9 55//9 25//9
f 55//9 126//9 38//9
f 126//9 59//9 38//9
f 53//9 56//9 37//9
f 53//17 54//17 131//17
f 54//16 132//16 131//16
f 131//16 132//16 47//16
f 132//15 45//15 47//15
f 133//12 39//12 134//12
f 39//12 41//12 134//12
f 134//13 41//13 135//13
f 41//13 43//13 135//13
f 135//14 43//14 136//14
f 43//14 45//14 136//14
f 136//15 45//15 132//15
f 39//9 133//9 137//9
f 138//9 54//9 39//9
f 54//16 138//16 132//16
f 138//15 136//15 132//15
f 139//9 138//9 39//9
f 138//15 139//15 136//15
f 139//14 135//14 136//14
f 137//9 139//9 39//9
f 139//14 137//14 135//14
f 137//13 134//13 135//13
f 137//13 133//13 134//13
f 140//9 93//9 95//9
f 93//22 140//22 91//22
f 140//21 90//21 91//21
f 94//19 87//19 88//19
f 95//20 94//20 89//20
f 94//19 88//19 89//19
f 140//21 95//21 90//21
f 95//20 89//20 90//20
f 21//9 25//9 3//9
f 51//17 53//17 49//17
f 53//17 131//17 49//17
f 49//16 131//16 47//16
# Vertices: 140, normals: 30, texture coordinates: 0, faces: 276

