# WaveFront *.obj file (generated by Autodesk ATF)

mtllib 3 pin outlet socket.mtl

g Body1

v 0.013500 0.013500 0.025000
v 0.013500 -0.013500 0.025000
v 0.013500 -0.013500 0.000000
v 0.013500 0.013500 0.000000
v -0.013500 0.013500 0.025000
v -0.013500 0.013500 0.000000
v -0.013500 -0.013500 0.025000
v -0.013500 -0.013500 0.000000
v -0.007250 0.008000 0.000000
v -0.007250 -0.001000 0.000000
v -0.005250 -0.001000 0.000000
v -0.005250 0.008000 0.000000
v 0.002500 -0.008500 0.000000
v 0.002452 -0.008012 0.000000
v 0.002310 -0.007543 0.000000
v 0.002079 -0.007111 0.000000
v 0.001768 -0.006732 0.000000
v 0.001389 -0.006421 0.000000
v 0.000957 -0.006190 0.000000
v 0.000488 -0.006048 0.000000
v -0.000000 -0.006000 0.000000
v -0.000488 -0.006048 0.000000
v -0.000957 -0.006190 0.000000
v -0.001389 -0.006421 0.000000
v -0.001768 -0.006732 0.000000
v -0.002079 -0.007111 0.000000
v -0.002310 -0.007543 0.000000
v -0.002452 -0.008012 0.000000
v -0.002500 -0.008500 0.000000
v -0.002500 -0.011000 0.000000
v 0.002500 -0.011000 0.000000
v 0.005250 0.007000 0.000000
v 0.005250 0.000000 0.000000
v 0.007250 0.000000 0.000000
v 0.007250 0.007000 0.000000
v -0.007250 0.008000 0.035800
v -0.007250 -0.001000 0.035800
v -0.005250 -0.001000 0.035800
v -0.005250 0.008000 0.035800
v 0.005250 0.007000 0.035800
v 0.005250 0.000000 0.035800
v 0.007250 0.000000 0.035800
v 0.007250 0.007000 0.035800
v -0.002500 -0.011000 0.035800
v 0.002500 -0.011000 0.035800
v 0.002500 -0.008500 0.035800
v 0.002452 -0.008012 0.035800
v 0.002310 -0.007543 0.035800
v 0.002079 -0.007111 0.035800
v 0.001768 -0.006732 0.035800
v 0.001389 -0.006421 0.035800
v 0.000957 -0.006190 0.035800
v 0.000488 -0.006048 0.035800
v 0.000000 -0.006000 0.035800
v -0.000488 -0.006048 0.035800
v -0.000957 -0.006190 0.035800
v -0.001389 -0.006421 0.035800
v -0.001768 -0.006732 0.035800
v -0.002079 -0.007111 0.035800
v -0.002310 -0.007543 0.035800
v -0.002452 -0.008012 0.035800
v -0.002500 -0.008500 0.035800
v 0.002452 -0.008012 0.026850
v 0.002452 -0.008012 0.017900
v 0.002452 -0.008012 0.008950
v 0.002310 -0.007543 0.026850
v 0.002310 -0.007543 0.017900
v 0.002310 -0.007543 0.008950
v 0.002079 -0.007111 0.026850
v 0.002079 -0.007111 0.017900
v 0.002079 -0.007111 0.008950
v 0.001768 -0.006732 0.026850
v 0.001768 -0.006732 0.017900
v 0.001768 -0.006732 0.008950
v 0.001389 -0.006421 0.026850
v 0.001389 -0.006421 0.017900
v 0.001389 -0.006421 0.008950
v 0.000957 -0.006190 0.026850
v 0.000957 -0.006190 0.017900
v 0.000957 -0.006190 0.008950
v 0.000488 -0.006048 0.026850
v 0.000488 -0.006048 0.017900
v 0.000488 -0.006048 0.008950
v 0.000000 -0.006000 0.026850
v 0.000000 -0.006000 0.017900
v 0.000000 -0.006000 0.008950
v -0.000488 -0.006048 0.026850
v -0.000488 -0.006048 0.017900
v -0.000488 -0.006048 0.008950
v -0.000957 -0.006190 0.026850
v -0.000957 -0.006190 0.017900
v -0.000957 -0.006190 0.008950
v -0.001389 -0.006421 0.026850
v -0.001389 -0.006421 0.017900
v -0.001389 -0.006421 0.008950
v -0.001768 -0.006732 0.026850
v -0.001768 -0.006732 0.017900
v -0.001768 -0.006732 0.008950
v -0.002079 -0.007111 0.026850
v -0.002079 -0.007111 0.017900
v -0.002079 -0.007111 0.008950
v -0.002310 -0.007543 0.026850
v -0.002310 -0.007543 0.017900
v -0.002310 -0.007543 0.008950
v -0.002452 -0.008012 0.026850
v -0.002452 -0.008012 0.017900
v -0.002452 -0.008012 0.008950
v 0.021500 0.000000 0.035800
v 0.021450 -0.001467 0.035800
v 0.021300 -0.002928 0.035800
v 0.021050 -0.004374 0.035800
v 0.020703 -0.005801 0.035800
v 0.020259 -0.007200 0.035800
v 0.019720 -0.008566 0.035800
v 0.019090 -0.009891 0.035800
v 0.018370 -0.011171 0.035800
v 0.017565 -0.012399 0.035800
v 0.016678 -0.013568 0.035800
v 0.015713 -0.014675 0.035800
v 0.014675 -0.015713 0.035800
v 0.013568 -0.016678 0.035800
v 0.012399 -0.017565 0.035800
v 0.011171 -0.018370 0.035800
v 0.009891 -0.019090 0.035800
v 0.008566 -0.019720 0.035800
v 0.007200 -0.020259 0.035800
v 0.005801 -0.020703 0.035800
v 0.004374 -0.021050 0.035800
v 0.002928 -0.021300 0.035800
v 0.001467 -0.021450 0.035800
v -0.000000 -0.021500 0.035800
v -0.001467 -0.021450 0.035800
v -0.002928 -0.021300 0.035800
v -0.004374 -0.021050 0.035800
v -0.005801 -0.020703 0.035800
v -0.007200 -0.020259 0.035800
v -0.008566 -0.019720 0.035800
v -0.009891 -0.019090 0.035800
v -0.011171 -0.018370 0.035800
v -0.012399 -0.017565 0.035800
v -0.013568 -0.016678 0.035800
v -0.014675 -0.015713 0.035800
v -0.015713 -0.014675 0.035800
v -0.016678 -0.013568 0.035800
v -0.017565 -0.012399 0.035800
v -0.018370 -0.011171 0.035800
v -0.019090 -0.009891 0.035800
v -0.019720 -0.008566 0.035800
v -0.020259 -0.007200 0.035800
v -0.020703 -0.005801 0.035800
v -0.021050 -0.004374 0.035800
v -0.021300 -0.002928 0.035800
v -0.021450 -0.001467 0.035800
v -0.021500 0.000000 0.035800
v -0.021450 0.001467 0.035800
v -0.021300 0.002928 0.035800
v -0.021050 0.004374 0.035800
v -0.020703 0.005801 0.035800
v -0.020259 0.007200 0.035800
v -0.019720 0.008566 0.035800
v -0.019090 0.009891 0.035800
v -0.018370 0.011171 0.035800
v -0.017565 0.012399 0.035800
v -0.016678 0.013568 0.035800
v -0.015713 0.014675 0.035800
v -0.014675 0.015713 0.035800
v -0.013568 0.016678 0.035800
v -0.012399 0.017565 0.035800
v -0.011171 0.018370 0.035800
v -0.009891 0.019090 0.035800
v -0.008566 0.019720 0.035800
v -0.007200 0.020259 0.035800
v -0.005801 0.020703 0.035800
v -0.004374 0.021050 0.035800
v -0.002928 0.021300 0.035800
v -0.001467 0.021450 0.035800
v -0.000000 0.021500 0.035800
v 0.001467 0.021450 0.035800
v 0.002928 0.021300 0.035800
v 0.004374 0.021050 0.035800
v 0.005801 0.020703 0.035800
v 0.007200 0.020259 0.035800
v 0.008566 0.019720 0.035800
v 0.009891 0.019090 0.035800
v 0.011171 0.018370 0.035800
v 0.012399 0.017565 0.035800
v 0.013568 0.016678 0.035800
v 0.014675 0.015713 0.035800
v 0.015713 0.014675 0.035800
v 0.016678 0.013568 0.035800
v 0.017565 0.012399 0.035800
v 0.018370 0.011171 0.035800
v 0.019090 0.009891 0.035800
v 0.019720 0.008566 0.035800
v 0.020259 0.007200 0.035800
v 0.020703 0.005801 0.035800
v 0.021050 0.004374 0.035800
v 0.021300 0.002928 0.035800
v 0.021450 0.001467 0.035800
v 0.021500 0.000000 0.027800
v 0.021450 0.001467 0.027800
v 0.021300 0.002928 0.027800
v 0.021050 0.004374 0.027800
v 0.020703 0.005801 0.027800
v 0.020259 0.007200 0.027800
v 0.019720 0.008566 0.027800
v 0.019090 0.009891 0.027800
v 0.018370 0.011171 0.027800
v 0.017565 0.012399 0.027800
v 0.016678 0.013568 0.027800
v 0.015713 0.014675 0.027800
v 0.014675 0.015713 0.027800
v 0.013568 0.016678 0.027800
v 0.012399 0.017565 0.027800
v 0.011171 0.018370 0.027800
v 0.009891 0.019090 0.027800
v 0.008566 0.019720 0.027800
v 0.007200 0.020259 0.027800
v 0.005801 0.020703 0.027800
v 0.004374 0.021050 0.027800
v 0.002928 0.021300 0.027800
v 0.001467 0.021450 0.027800
v -0.000000 0.021500 0.027800
v -0.001467 0.021450 0.027800
v -0.002928 0.021300 0.027800
v -0.004374 0.021050 0.027800
v -0.005801 0.020703 0.027800
v -0.007200 0.020259 0.027800
v -0.008566 0.019720 0.027800
v -0.009891 0.019090 0.027800
v -0.011171 0.018370 0.027800
v -0.012399 0.017565 0.027800
v -0.013568 0.016678 0.027800
v -0.014675 0.015713 0.027800
v -0.015713 0.014675 0.027800
v -0.016678 0.013568 0.027800
v -0.017565 0.012399 0.027800
v -0.018370 0.011171 0.027800
v -0.019090 0.009891 0.027800
v -0.019720 0.008566 0.027800
v -0.020259 0.007200 0.027800
v -0.020703 0.005801 0.027800
v -0.021050 0.004374 0.027800
v -0.021300 0.002928 0.027800
v -0.021450 0.001467 0.027800
v -0.021500 0.000000 0.027800
v -0.021450 -0.001467 0.027800
v -0.021300 -0.002928 0.027800
v -0.021050 -0.004374 0.027800
v -0.020703 -0.005801 0.027800
v -0.020259 -0.007200 0.027800
v -0.019720 -0.008566 0.027800
v -0.019090 -0.009891 0.027800
v -0.018370 -0.011171 0.027800
v -0.017565 -0.012399 0.027800
v -0.016678 -0.013568 0.027800
v -0.015713 -0.014675 0.027800
v -0.014675 -0.015713 0.027800
v -0.013568 -0.016678 0.027800
v -0.012399 -0.017565 0.027800
v -0.011171 -0.018370 0.027800
v -0.009891 -0.019090 0.027800
v -0.008566 -0.019720 0.027800
v -0.007200 -0.020259 0.027800
v -0.005801 -0.020703 0.027800
v -0.004374 -0.021050 0.027800
v -0.002928 -0.021300 0.027800
v -0.001467 -0.021450 0.027800
v -0.000000 -0.021500 0.027800
v 0.001467 -0.021450 0.027800
v 0.002928 -0.021300 0.027800
v 0.004374 -0.021050 0.027800
v 0.005801 -0.020703 0.027800
v 0.007200 -0.020259 0.027800
v 0.008566 -0.019720 0.027800
v 0.009891 -0.019090 0.027800
v 0.011171 -0.018370 0.027800
v 0.012399 -0.017565 0.027800
v 0.013568 -0.016678 0.027800
v 0.014675 -0.015713 0.027800
v 0.015713 -0.014675 0.027800
v 0.016678 -0.013568 0.027800
v 0.017565 -0.012399 0.027800
v 0.018370 -0.011171 0.027800
v 0.019090 -0.009891 0.027800
v 0.019720 -0.008566 0.027800
v 0.020259 -0.007200 0.027800
v 0.020703 -0.005801 0.027800
v 0.021050 -0.004374 0.027800
v 0.021300 -0.002928 0.027800
v 0.021450 -0.001467 0.027800
v -0.025000 -0.025000 0.027800
v -0.025000 0.025000 0.027800
v -0.025000 0.025000 0.025000
v -0.025000 -0.025000 0.025000
v 0.025000 -0.025000 0.027800
v 0.025000 -0.025000 0.025000
v 0.025000 0.025000 0.027800
v 0.025000 0.025000 0.025000
vt -0.000000 0.000000 0.000000
vt 2.700000 0.000000 0.000000
vt 0.000000 2.500000 0.000000
vt 2.700000 2.500000 0.000000
vt 0.000000 0.000000 0.000000
vt 2.700000 0.000000 0.000000
vt 0.000000 2.500000 0.000000
vt 2.700000 2.500000 0.000000
vt 0.000000 0.000000 0.000000
vt 2.700000 0.000000 0.000000
vt 0.000000 2.500000 0.000000
vt 2.700000 2.500000 0.000000
vt -0.000000 0.000000 0.000000
vt 2.700000 0.000000 0.000000
vt 0.000000 2.500000 0.000000
vt 2.700000 2.500000 0.000000
vt -0.525000 -0.800000 0.000000
vt -0.725000 -0.800000 0.000000
vt -1.350000 -1.350000 0.000000
vt -0.725000 0.100000 0.000000
vt -1.350000 1.350000 0.000000
vt -0.250000 0.850000 0.000000
vt -0.250000 1.100000 0.000000
vt -0.525000 0.100000 0.000000
vt -0.230970 0.754329 0.000000
vt -0.245196 0.801227 0.000000
vt 0.525000 -0.000000 0.000000
vt -0.000000 0.600000 0.000000
vt -0.048773 0.604804 0.000000
vt 0.250000 1.100000 0.000000
vt 0.250000 0.850000 0.000000
vt 1.350000 1.350000 0.000000
vt 0.245196 0.801227 0.000000
vt 0.725000 -0.000000 0.000000
vt 0.230970 0.754329 0.000000
vt 0.207867 0.711107 0.000000
vt 0.176777 0.673223 0.000000
vt 0.138893 0.642133 0.000000
vt 0.095671 0.619030 0.000000
vt 0.048773 0.604804 0.000000
vt -0.095671 0.619030 0.000000
vt -0.138893 0.642133 0.000000
vt -0.176777 0.673223 0.000000
vt -0.207867 0.711107 0.000000
vt 0.525000 -0.700000 0.000000
vt 1.350000 -1.350000 0.000000
vt 0.725000 -0.700000 0.000000
vt -0.900000 0.000000 0.000000
vt -0.000000 0.000000 0.000000
vt -0.900000 3.580000 0.000000
vt -0.000000 3.580000 0.000000
vt -0.200000 0.000000 0.000000
vt -0.000000 0.000000 0.000000
vt -0.200000 3.580000 0.000000
vt -0.000000 3.580000 0.000000
vt -0.900000 0.000000 0.000000
vt -0.000000 0.000000 0.000000
vt -0.900000 3.580000 0.000000
vt -0.000000 3.580000 0.000000
vt -0.200000 0.000000 0.000000
vt -0.000000 0.000000 0.000000
vt -0.200000 3.580000 0.000000
vt -0.000000 3.580000 0.000000
vt -0.700000 0.000000 0.000000
vt -0.000000 0.000000 0.000000
vt -0.700000 3.580000 0.000000
vt -0.000000 3.580000 0.000000
vt -0.200000 0.000000 0.000000
vt -0.000000 0.000000 0.000000
vt -0.200000 3.580000 0.000000
vt 0.000000 3.580000 0.000000
vt -0.700000 0.000000 0.000000
vt -0.000000 0.000000 0.000000
vt -0.700000 3.580000 0.000000
vt -0.000000 3.580000 0.000000
vt -0.200000 0.000000 0.000000
vt -0.000000 0.000000 0.000000
vt -0.200000 3.580000 0.000000
vt -0.000000 3.580000 0.000000
vt -0.500000 0.000000 0.000000
vt -0.000000 0.000000 0.000000
vt -0.500000 3.580000 0.000000
vt -0.000000 3.580000 0.000000
vt -0.250000 0.000000 0.000000
vt -0.000000 0.000000 0.000000
vt -0.250000 3.580000 0.000000
vt -0.000000 3.580000 0.000000
vt 1.790000 -0.049087 0.000000
vt 3.580000 0.000000 0.000000
vt 2.685000 -0.049087 0.000000
vt 3.580000 -0.049087 0.000000
vt 3.580000 -0.098175 0.000000
vt 2.685000 -0.098175 0.000000
vt 3.580000 -0.147262 0.000000
vt 2.685000 -0.147262 0.000000
vt 3.580000 -0.196350 0.000000
vt 2.685000 -0.196350 0.000000
vt 3.580000 -0.245437 0.000000
vt 2.685000 -0.245437 0.000000
vt 3.580000 -0.294524 0.000000
vt 2.685000 -0.294524 0.000000
vt 3.580000 -0.343612 0.000000
vt 2.685000 -0.343612 0.000000
vt 3.580000 -0.392699 0.000000
vt 2.685000 -0.392699 0.000000
vt 3.580000 -0.441786 0.000000
vt 2.685000 -0.441786 0.000000
vt 3.580000 -0.490874 0.000000
vt 2.685000 -0.490874 0.000000
vt 3.580000 -0.539961 0.000000
vt 2.685000 -0.539961 0.000000
vt 3.580000 -0.589049 0.000000
vt 2.685000 -0.589049 0.000000
vt 3.580000 -0.638136 0.000000
vt 2.685000 -0.638136 0.000000
vt 3.580000 -0.687223 0.000000
vt 2.685000 -0.687223 0.000000
vt 3.580000 -0.736311 0.000000
vt 2.685000 -0.736311 0.000000
vt 3.580000 -0.785398 0.000000
vt 1.790000 -0.736311 0.000000
vt 0.000000 -0.785398 0.000000
vt 0.895000 -0.736311 0.000000
vt 0.000000 -0.736311 0.000000
vt 0.000000 -0.687223 0.000000
vt 0.895000 -0.687223 0.000000
vt 0.000000 -0.638136 0.000000
vt 0.895000 -0.638136 0.000000
vt 0.000000 -0.589049 0.000000
vt 0.895000 -0.589049 0.000000
vt 0.000000 -0.539961 0.000000
vt 0.895000 -0.539961 0.000000
vt 0.000000 -0.490874 0.000000
vt 0.895000 -0.490874 0.000000
vt 0.000000 -0.441786 0.000000
vt 0.895000 -0.441786 0.000000
vt 0.000000 -0.392699 0.000000
vt 0.895000 -0.392699 0.000000
vt 0.000000 -0.343612 0.000000
vt 0.895000 -0.343612 0.000000
vt 0.000000 -0.294524 0.000000
vt 0.895000 -0.294524 0.000000
vt 0.000000 -0.245437 0.000000
vt 0.895000 -0.245437 0.000000
vt 0.000000 -0.196350 0.000000
vt 0.895000 -0.196350 0.000000
vt 0.000000 -0.147262 0.000000
vt 0.895000 -0.147262 0.000000
vt 0.000000 -0.098175 0.000000
vt 0.895000 -0.098175 0.000000
vt 0.000000 -0.049087 0.000000
vt 0.895000 -0.049087 0.000000
vt 0.000000 0.000000 0.000000
vt 1.790000 -0.098175 0.000000
vt 1.790000 -0.147262 0.000000
vt 1.790000 -0.196350 0.000000
vt 1.790000 -0.245437 0.000000
vt 1.790000 -0.294524 0.000000
vt 1.790000 -0.343612 0.000000
vt 1.790000 -0.392699 0.000000
vt 1.790000 -0.441786 0.000000
vt 1.790000 -0.490874 0.000000
vt 1.790000 -0.539961 0.000000
vt 1.790000 -0.589049 0.000000
vt 1.790000 -0.638136 0.000000
vt 1.790000 -0.687223 0.000000
vt -0.250000 0.000000 0.000000
vt -0.000000 0.000000 0.000000
vt -0.250000 3.580000 0.000000
vt -0.000000 3.580000 0.000000
vt -0.800000 6.607589 0.000000
vt -0.000000 6.607589 0.000000
vt -0.800000 6.754424 0.000000
vt -0.000000 6.754424 0.000000
vt -0.800000 -6.754424 0.000000
vt -0.000000 -6.754424 0.000000
vt -0.800000 -6.607589 0.000000
vt -0.000000 -6.607589 0.000000
vt -0.800000 -6.460754 0.000000
vt -0.000000 -6.460754 0.000000
vt -0.800000 -6.313918 0.000000
vt -0.000000 -6.313918 0.000000
vt -0.800000 -6.167083 0.000000
vt -0.000000 -6.167083 0.000000
vt -0.800000 -6.020248 0.000000
vt -0.000000 -6.020248 0.000000
vt -0.800000 -5.873412 0.000000
vt -0.000000 -5.873412 0.000000
vt -0.800000 -5.726577 0.000000
vt -0.000000 -5.726577 0.000000
vt -0.800000 -5.579742 0.000000
vt -0.000000 -5.579742 0.000000
vt -0.800000 -5.432906 0.000000
vt -0.000000 -5.432906 0.000000
vt -0.800000 -5.286071 0.000000
vt -0.000000 -5.286071 0.000000
vt -0.800000 -5.139236 0.000000
vt -0.000000 -5.139236 0.000000
vt -0.800000 -4.992400 0.000000
vt -0.000000 -4.992400 0.000000
vt -0.800000 -4.845565 0.000000
vt -0.000000 -4.845565 0.000000
vt -0.800000 -4.698730 0.000000
vt -0.000000 -4.698730 0.000000
vt -0.800000 -4.551895 0.000000
vt -0.000000 -4.551895 0.000000
vt -0.800000 -4.405059 0.000000
vt -0.000000 -4.405059 0.000000
vt -0.800000 -4.258224 0.000000
vt -0.000000 -4.258224 0.000000
vt -0.800000 -4.111389 0.000000
vt -0.000000 -4.111389 0.000000
vt -0.800000 -3.964553 0.000000
vt -0.000000 -3.964553 0.000000
vt -0.800000 -3.817718 0.000000
vt -0.000000 -3.817718 0.000000
vt -0.800000 -3.670883 0.000000
vt -0.000000 -3.670883 0.000000
vt -0.800000 -3.524047 0.000000
vt -0.000000 -3.524047 0.000000
vt -0.800000 -3.377212 0.000000
vt -0.000000 -3.377212 0.000000
vt -0.800000 -3.230377 0.000000
vt -0.000000 -3.230377 0.000000
vt -0.800000 -3.083541 0.000000
vt -0.000000 -3.083541 0.000000
vt -0.800000 -2.936706 0.000000
vt -0.000000 -2.936706 0.000000
vt -0.800000 -2.789871 0.000000
vt -0.000000 -2.789871 0.000000
vt -0.800000 -2.643036 0.000000
vt -0.000000 -2.643036 0.000000
vt -0.800000 -2.496200 0.000000
vt -0.000000 -2.496200 0.000000
vt -0.800000 -2.349365 0.000000
vt -0.000000 -2.349365 0.000000
vt -0.800000 -2.202530 0.000000
vt -0.000000 -2.202530 0.000000
vt -0.800000 -2.055694 0.000000
vt -0.000000 -2.055694 0.000000
vt -0.800000 -1.908859 0.000000
vt -0.000000 -1.908859 0.000000
vt -0.800000 -1.762024 0.000000
vt -0.000000 -1.762024 0.000000
vt -0.800000 -1.615188 0.000000
vt -0.000000 -1.615188 0.000000
vt -0.800000 -1.468353 0.000000
vt -0.000000 -1.468353 0.000000
vt -0.800000 -1.321518 0.000000
vt -0.000000 -1.321518 0.000000
vt -0.800000 -1.174682 0.000000
vt -0.000000 -1.174682 0.000000
vt -0.800000 -1.027847 0.000000
vt -0.000000 -1.027847 0.000000
vt -0.800000 -0.881012 0.000000
vt -0.000000 -0.881012 0.000000
vt -0.800000 -0.734177 0.000000
vt -0.000000 -0.734177 0.000000
vt -0.800000 -0.587341 0.000000
vt -0.000000 -0.587341 0.000000
vt -0.800000 -0.440506 0.000000
vt -0.000000 -0.440506 0.000000
vt -0.800000 -0.293671 0.000000
vt -0.000000 -0.293671 0.000000
vt -0.800000 -0.146835 0.000000
vt -0.000000 -0.146835 0.000000
vt -0.800000 0.000000 0.000000
vt -0.000000 0.000000 0.000000
vt -0.800000 0.146835 0.000000
vt -0.000000 0.146835 0.000000
vt -0.800000 0.293671 0.000000
vt -0.000000 0.293671 0.000000
vt -0.800000 0.440506 0.000000
vt -0.000000 0.440506 0.000000
vt -0.800000 0.587341 0.000000
vt -0.000000 0.587341 0.000000
vt -0.800000 0.734177 0.000000
vt -0.000000 0.734177 0.000000
vt -0.800000 0.881012 0.000000
vt -0.000000 0.881012 0.000000
vt -0.800000 1.027847 0.000000
vt -0.000000 1.027847 0.000000
vt -0.800000 1.174682 0.000000
vt -0.000000 1.174682 0.000000
vt -0.800000 1.321518 0.000000
vt -0.000000 1.321518 0.000000
vt -0.800000 1.468353 0.000000
vt -0.000000 1.468353 0.000000
vt -0.800000 1.615188 0.000000
vt -0.000000 1.615188 0.000000
vt -0.800000 1.762024 0.000000
vt -0.000000 1.762024 0.000000
vt -0.800000 1.908859 0.000000
vt -0.000000 1.908859 0.000000
vt -0.800000 2.055694 0.000000
vt -0.000000 2.055694 0.000000
vt -0.800000 2.202530 0.000000
vt -0.000000 2.202530 0.000000
vt -0.800000 2.349365 0.000000
vt -0.000000 2.349365 0.000000
vt -0.800000 2.496200 0.000000
vt -0.000000 2.496200 0.000000
vt -0.800000 2.643036 0.000000
vt -0.000000 2.643036 0.000000
vt -0.800000 2.789871 0.000000
vt -0.000000 2.789871 0.000000
vt -0.800000 2.936706 0.000000
vt -0.000000 2.936706 0.000000
vt -0.800000 3.083541 0.000000
vt -0.000000 3.083541 0.000000
vt -0.800000 3.230377 0.000000
vt -0.000000 3.230377 0.000000
vt -0.800000 3.377212 0.000000
vt -0.000000 3.377212 0.000000
vt -0.800000 3.524047 0.000000
vt -0.000000 3.524047 0.000000
vt -0.800000 3.670883 0.000000
vt -0.000000 3.670883 0.000000
vt -0.800000 3.817718 0.000000
vt -0.000000 3.817718 0.000000
vt -0.800000 3.964553 0.000000
vt -0.000000 3.964553 0.000000
vt -0.800000 4.111389 0.000000
vt -0.000000 4.111389 0.000000
vt -0.800000 4.258224 0.000000
vt -0.000000 4.258224 0.000000
vt -0.800000 4.405059 0.000000
vt -0.000000 4.405059 0.000000
vt -0.800000 4.551895 0.000000
vt -0.000000 4.551895 0.000000
vt -0.800000 4.698730 0.000000
vt -0.000000 4.698730 0.000000
vt -0.800000 4.845565 0.000000
vt -0.000000 4.845565 0.000000
vt -0.800000 4.992400 0.000000
vt -0.000000 4.992400 0.000000
vt -0.800000 5.139236 0.000000
vt -0.000000 5.139236 0.000000
vt -0.800000 5.286071 0.000000
vt -0.000000 5.286071 0.000000
vt -0.800000 5.432906 0.000000
vt -0.000000 5.432906 0.000000
vt -0.800000 5.579742 0.000000
vt -0.000000 5.579742 0.000000
vt -0.800000 5.726577 0.000000
vt -0.000000 5.726577 0.000000
vt -0.800000 5.873412 0.000000
vt -0.000000 5.873412 0.000000
vt -0.800000 6.020248 0.000000
vt -0.000000 6.020248 0.000000
vt -0.800000 6.167083 0.000000
vt -0.000000 6.167083 0.000000
vt -0.800000 6.313918 0.000000
vt -0.000000 6.313918 0.000000
vt -0.800000 6.460754 0.000000
vt -0.000000 6.460754 0.000000
vt 0.525000 0.100000 0.000000
vt -0.525000 -0.000000 0.000000
vt 0.525000 -0.800000 0.000000
vt -0.525000 -0.700000 0.000000
vt -0.146721 -2.144988 0.000000
vt -0.292758 -2.129975 0.000000
vt -0.437430 -2.105031 0.000000
vt -0.580063 -2.070272 0.000000
vt -0.719991 -2.025861 0.000000
vt -0.856562 -1.972004 0.000000
vt -0.725000 -0.700000 0.000000
vt -0.989140 -1.908953 0.000000
vt -1.117105 -1.837002 0.000000
vt -1.239863 -1.756485 0.000000
vt -1.356839 -1.667779 0.000000
vt -1.467489 -1.571297 0.000000
vt -1.571297 -1.467489 0.000000
vt -1.667779 -1.356839 0.000000
vt -1.756485 -1.239863 0.000000
vt -1.837002 -1.117105 0.000000
vt -1.908953 -0.989140 0.000000
vt -1.972004 -0.856562 0.000000
vt -2.025861 -0.719991 0.000000
vt -2.070272 -0.580063 0.000000
vt -0.725000 -0.000000 0.000000
vt -2.105031 -0.437430 0.000000
vt -2.129975 -0.292758 0.000000
vt -2.144988 -0.146721 0.000000
vt -2.150000 -0.000000 0.000000
vt -2.144988 0.146721 0.000000
vt -2.129975 0.292758 0.000000
vt -2.105031 0.437430 0.000000
vt -2.070272 0.580063 0.000000
vt -2.025861 0.719991 0.000000
vt -1.972004 0.856562 0.000000
vt -1.908953 0.989140 0.000000
vt -1.837002 1.117105 0.000000
vt -1.756485 1.239863 0.000000
vt -0.250000 0.850000 0.000000
vt -1.667779 1.356839 0.000000
vt -1.571297 1.467489 0.000000
vt -0.250000 1.100000 0.000000
vt -1.467489 1.571297 0.000000
vt -1.356839 1.667779 0.000000
vt -1.239863 1.756485 0.000000
vt -1.117105 1.837002 0.000000
vt -0.989140 1.908953 0.000000
vt -0.856562 1.972004 0.000000
vt -0.719991 2.025861 0.000000
vt -0.580063 2.070272 0.000000
vt -0.437430 2.105031 0.000000
vt -0.292758 2.129975 0.000000
vt -0.146721 2.144988 0.000000
vt 0.000000 2.150000 0.000000
vt 0.250000 1.100000 0.000000
vt 0.146721 2.144988 0.000000
vt 0.292758 2.129975 0.000000
vt 0.437430 2.105031 0.000000
vt 0.580063 2.070272 0.000000
vt 0.719991 2.025861 0.000000
vt 0.856562 1.972004 0.000000
vt 0.989140 1.908953 0.000000
vt 1.117105 1.837002 0.000000
vt 1.239863 1.756485 0.000000
vt 1.356839 1.667779 0.000000
vt 1.467489 1.571297 0.000000
vt 1.571297 1.467489 0.000000
vt 0.250000 0.850000 0.000000
vt 1.667779 1.356839 0.000000
vt 0.725000 0.100000 0.000000
vt 1.756485 1.239863 0.000000
vt 1.837002 1.117105 0.000000
vt 1.908953 0.989140 0.000000
vt 1.972004 0.856562 0.000000
vt 2.025861 0.719991 0.000000
vt 2.070272 0.580063 0.000000
vt 2.105031 0.437430 0.000000
vt 2.129975 0.292758 0.000000
vt 2.144988 0.146721 0.000000
vt 2.150000 0.000000 0.000000
vt 2.144988 -0.146721 0.000000
vt 2.129975 -0.292758 0.000000
vt 2.105031 -0.437430 0.000000
vt 2.070272 -0.580063 0.000000
vt 0.725000 -0.800000 0.000000
vt 2.025861 -0.719991 0.000000
vt 1.972004 -0.856562 0.000000
vt 1.908953 -0.989140 0.000000
vt 1.837002 -1.117105 0.000000
vt 1.756485 -1.239863 0.000000
vt 1.667779 -1.356839 0.000000
vt 1.571297 -1.467489 0.000000
vt 1.467489 -1.571297 0.000000
vt 1.356839 -1.667779 0.000000
vt 1.239863 -1.756485 0.000000
vt 1.117105 -1.837002 0.000000
vt 0.989140 -1.908953 0.000000
vt 0.856562 -1.972004 0.000000
vt 0.719991 -2.025861 0.000000
vt 0.580063 -2.070272 0.000000
vt 0.437430 -2.105031 0.000000
vt 0.292758 -2.129975 0.000000
vt 0.146721 -2.144988 0.000000
vt 0.000000 -2.150000 0.000000
vt 0.230970 0.754329 0.000000
vt 0.207867 0.711107 0.000000
vt 0.176777 0.673223 0.000000
vt -0.207867 0.711107 0.000000
vt -0.230970 0.754329 0.000000
vt -0.245196 0.801227 0.000000
vt 0.245196 0.801227 0.000000
vt 0.138893 0.642133 0.000000
vt 0.095671 0.619030 0.000000
vt 0.048773 0.604804 0.000000
vt -0.000000 0.600000 0.000000
vt -0.048773 0.604804 0.000000
vt -0.095671 0.619030 0.000000
vt -0.138893 0.642133 0.000000
vt -0.176777 0.673223 0.000000
vt 0.000000 0.000000 0.000000
vt 5.000000 0.000000 0.000000
vt 0.000000 0.280000 0.000000
vt 5.000000 0.280000 0.000000
vt 0.000000 0.000000 0.000000
vt 5.000000 0.000000 0.000000
vt 0.000000 0.280000 0.000000
vt 5.000000 0.280000 0.000000
vt 0.000000 0.000000 0.000000
vt 5.000000 0.000000 0.000000
vt 0.000000 0.280000 0.000000
vt 5.000000 0.280000 0.000000
vt 0.000000 0.000000 0.000000
vt 5.000000 0.000000 0.000000
vt 0.000000 0.280000 0.000000
vt 5.000000 0.280000 0.000000
vt 2.144988 -0.146721 0.000000
vt 2.500000 -2.500000 0.000000
vt 2.150000 0.000000 0.000000
vt 2.500000 2.500000 0.000000
vt 2.144988 0.146721 0.000000
vt 2.129975 0.292758 0.000000
vt 2.105031 0.437430 0.000000
vt 2.070272 0.580063 0.000000
vt 2.025861 0.719991 0.000000
vt 1.972004 0.856562 0.000000
vt 1.908953 0.989140 0.000000
vt 1.837002 1.117105 0.000000
vt 1.756485 1.239863 0.000000
vt 1.667779 1.356839 0.000000
vt 1.571297 1.467489 0.000000
vt 1.467489 1.571297 0.000000
vt 1.356839 1.667779 0.000000
vt 1.239863 1.756485 0.000000
vt 1.117105 1.837002 0.000000
vt 0.989140 1.908953 0.000000
vt 0.856562 1.972004 0.000000
vt 0.719991 2.025861 0.000000
vt 0.580063 2.070272 0.000000
vt 0.437430 2.105031 0.000000
vt 0.292758 2.129975 0.000000
vt 0.146721 2.144988 0.000000
vt -0.000000 2.150000 0.000000
vt -2.500000 2.500000 0.000000
vt -0.146721 2.144988 0.000000
vt -0.292758 2.129975 0.000000
vt -0.437430 2.105031 0.000000
vt -0.580063 2.070272 0.000000
vt -0.719991 2.025861 0.000000
vt -0.856562 1.972004 0.000000
vt -0.989140 1.908953 0.000000
vt -1.117105 1.837002 0.000000
vt -1.239863 1.756485 0.000000
vt -1.356839 1.667779 0.000000
vt -1.467489 1.571297 0.000000
vt -1.571297 1.467489 0.000000
vt -1.667779 1.356839 0.000000
vt -1.756485 1.239863 0.000000
vt -1.837002 1.117105 0.000000
vt -1.908953 0.989140 0.000000
vt -1.972004 0.856562 0.000000
vt -2.025861 0.719991 0.000000
vt -2.070272 0.580063 0.000000
vt -2.105031 0.437430 0.000000
vt -2.129975 0.292758 0.000000
vt -2.144988 0.146721 0.000000
vt -2.150000 0.000000 0.000000
vt -2.500000 -2.500000 0.000000
vt -2.144988 -0.146721 0.000000
vt -2.129975 -0.292758 0.000000
vt -2.105031 -0.437430 0.000000
vt -2.070272 -0.580063 0.000000
vt -2.025861 -0.719991 0.000000
vt -1.972004 -0.856562 0.000000
vt -1.908953 -0.989140 0.000000
vt -1.837002 -1.117105 0.000000
vt -1.756485 -1.239863 0.000000
vt -1.667779 -1.356839 0.000000
vt -1.571297 -1.467489 0.000000
vt -1.467489 -1.571297 0.000000
vt -1.356839 -1.667779 0.000000
vt -1.239863 -1.756485 0.000000
vt -1.117105 -1.837002 0.000000
vt -0.989140 -1.908953 0.000000
vt -0.856562 -1.972004 0.000000
vt -0.719991 -2.025861 0.000000
vt -0.580063 -2.070272 0.000000
vt -0.437430 -2.105031 0.000000
vt -0.292758 -2.129975 0.000000
vt -0.146721 -2.144988 0.000000
vt -0.000000 -2.150000 0.000000
vt 0.146721 -2.144988 0.000000
vt 0.292758 -2.129975 0.000000
vt 0.437430 -2.105031 0.000000
vt 0.580063 -2.070272 0.000000
vt 0.719991 -2.025861 0.000000
vt 0.856562 -1.972004 0.000000
vt 0.989140 -1.908953 0.000000
vt 1.117105 -1.837002 0.000000
vt 1.239863 -1.756485 0.000000
vt 1.356839 -1.667779 0.000000
vt 1.467489 -1.571297 0.000000
vt 1.571297 -1.467489 0.000000
vt 1.667779 -1.356839 0.000000
vt 1.756485 -1.239863 0.000000
vt 1.837002 -1.117105 0.000000
vt 1.908953 -0.989140 0.000000
vt 1.972004 -0.856562 0.000000
vt 2.025861 -0.719991 0.000000
vt 2.070272 -0.580063 0.000000
vt 2.105031 -0.437430 0.000000
vt 2.129975 -0.292758 0.000000
vt -1.350000 1.350000 0.000000
vt -2.500000 -2.500000 0.000000
vt -1.350000 -1.350000 0.000000
vt 2.500000 -2.500000 0.000000
vt 1.350000 -1.350000 0.000000
vt 1.350000 1.350000 0.000000
vt 2.500000 2.500000 0.000000
vt -2.500000 2.500000 0.000000
vn 100.000000 0.000000 0.000000
vn 100.000000 0.000000 0.000000
vn 100.000000 0.000000 0.000000
vn 100.000000 0.000000 0.000000
vn 0.000000 100.000000 0.000000
vn 0.000000 100.000000 0.000000
vn 0.000000 100.000000 0.000000
vn 0.000000 100.000000 0.000000
vn -100.000000 0.000000 0.000000
vn -100.000000 0.000000 0.000000
vn -100.000000 0.000000 0.000000
vn -100.000000 0.000000 0.000000
vn 0.000000 -100.000000 0.000000
vn 0.000000 -100.000000 0.000000
vn 0.000000 -100.000000 0.000000
vn 0.000000 -100.000000 0.000000
vn 0.000000 0.000000 -100.000000
vn 0.000000 0.000000 -100.000000
vn 0.000000 0.000000 -100.000000
vn 0.000000 0.000000 -100.000000
vn 0.000000 0.000000 -100.000000
vn 0.000000 0.000000 -100.000000
vn 0.000000 0.000000 -100.000000
vn 0.000000 0.000000 -100.000000
vn 0.000000 0.000000 -100.000000
vn 0.000000 0.000000 -100.000000
vn 0.000000 0.000000 -100.000000
vn 0.000000 0.000000 -100.000000
vn 0.000000 0.000000 -100.000000
vn 0.000000 0.000000 -100.000000
vn 0.000000 0.000000 -100.000000
vn 0.000000 0.000000 -100.000000
vn 0.000000 0.000000 -100.000000
vn 0.000000 0.000000 -100.000000
vn 0.000000 0.000000 -100.000000
vn 0.000000 0.000000 -100.000000
vn 0.000000 0.000000 -100.000000
vn 0.000000 0.000000 -100.000000
vn 0.000000 0.000000 -100.000000
vn 0.000000 0.000000 -100.000000
vn 0.000000 0.000000 -100.000000
vn 0.000000 0.000000 -100.000000
vn 0.000000 0.000000 -100.000000
vn 0.000000 0.000000 -100.000000
vn 0.000000 0.000000 -100.000000
vn 0.000000 0.000000 -100.000000
vn 0.000000 0.000000 -100.000000
vn 100.000000 0.000000 0.000000
vn 100.000000 0.000000 0.000000
vn 100.000000 0.000000 0.000000
vn 100.000000 0.000000 0.000000
vn 0.000000 100.000000 0.000000
vn 0.000000 100.000000 0.000000
vn 0.000000 100.000000 0.000000
vn 0.000000 100.000000 0.000000
vn -100.000000 0.000000 0.000000
vn -100.000000 0.000000 0.000000
vn -100.000000 0.000000 0.000000
vn -100.000000 0.000000 0.000000
vn 0.000000 -100.000000 0.000000
vn 0.000000 -100.000000 0.000000
vn 0.000000 -100.000000 0.000000
vn 0.000000 -100.000000 0.000000
vn 100.000000 0.000000 0.000000
vn 100.000000 0.000000 0.000000
vn 100.000000 0.000000 0.000000
vn 100.000000 0.000000 0.000000
vn -0.000000 100.000000 -0.000000
vn -0.000000 100.000000 -0.000000
vn -0.000000 100.000000 -0.000000
vn -0.000000 100.000000 -0.000000
vn -100.000000 0.000000 0.000000
vn -100.000000 0.000000 0.000000
vn -100.000000 0.000000 0.000000
vn -100.000000 0.000000 0.000000
vn 0.000000 -100.000000 0.000000
vn 0.000000 -100.000000 0.000000
vn 0.000000 -100.000000 0.000000
vn 0.000000 -100.000000 0.000000
vn 0.000000 100.000000 0.000000
vn 0.000000 100.000000 0.000000
vn 0.000000 100.000000 0.000000
vn 0.000000 100.000000 0.000000
vn -100.000000 0.000000 0.000000
vn -100.000000 0.000000 0.000000
vn -100.000000 0.000000 0.000000
vn -100.000000 0.000000 0.000000
vn -98.078528 -19.509032 0.000000
vn -98.078528 -19.509032 0.000000
vn -98.078528 -19.509032 0.000000
vn -92.387953 -38.268343 0.000000
vn -92.387953 -38.268343 0.000000
vn -83.146961 -55.557023 0.000000
vn -83.146961 -55.557023 0.000000
vn -70.710678 -70.710678 0.000000
vn -70.710678 -70.710678 0.000000
vn -55.557023 -83.146961 0.000000
vn -55.557023 -83.146961 0.000000
vn -38.268343 -92.387953 0.000000
vn -38.268343 -92.387953 0.000000
vn -19.509032 -98.078528 0.000000
vn -19.509032 -98.078528 0.000000
vn 0.000000 -100.000000 0.000000
vn -0.000000 -100.000000 0.000000
vn 19.509032 -98.078528 0.000000
vn 19.509032 -98.078528 0.000000
vn 38.268343 -92.387953 0.000000
vn 38.268343 -92.387953 0.000000
vn 55.557023 -83.146961 0.000000
vn 55.557023 -83.146961 0.000000
vn 70.710678 -70.710678 0.000000
vn 70.710678 -70.710678 0.000000
vn 83.146961 -55.557023 0.000000
vn 83.146961 -55.557023 0.000000
vn 92.387953 -38.268343 0.000000
vn 92.387953 -38.268343 0.000000
vn 98.078528 -19.509032 0.000000
vn 98.078528 -19.509032 0.000000
vn 100.000000 -0.000000 0.000000
vn 98.078528 -19.509032 0.000000
vn 100.000000 -0.000000 0.000000
vn 98.078528 -19.509032 0.000000
vn 98.078528 -19.509032 0.000000
vn 92.387953 -38.268343 0.000000
vn 92.387953 -38.268343 0.000000
vn 83.146961 -55.557023 0.000000
vn 83.146961 -55.557023 0.000000
vn 70.710678 -70.710678 0.000000
vn 70.710678 -70.710678 0.000000
vn 55.557023 -83.146961 0.000000
vn 55.557023 -83.146961 0.000000
vn 38.268343 -92.387953 0.000000
vn 38.268343 -92.387953 0.000000
vn 19.509032 -98.078528 0.000000
vn 19.509032 -98.078528 0.000000
vn -0.000000 -100.000000 0.000000
vn -0.000000 -100.000000 0.000000
vn -19.509032 -98.078528 0.000000
vn -19.509032 -98.078528 0.000000
vn -38.268343 -92.387953 0.000000
vn -38.268343 -92.387953 0.000000
vn -55.557023 -83.146961 0.000000
vn -55.557023 -83.146961 0.000000
vn -70.710678 -70.710678 0.000000
vn -70.710678 -70.710678 0.000000
vn -83.146961 -55.557023 0.000000
vn -83.146961 -55.557023 0.000000
vn -92.387953 -38.268343 0.000000
vn -92.387953 -38.268343 0.000000
vn -98.078528 -19.509032 0.000000
vn -98.078528 -19.509032 0.000000
vn -92.387953 -38.268343 0.000000
vn -83.146961 -55.557023 0.000000
vn -70.710678 -70.710678 0.000000
vn -55.557023 -83.146961 0.000000
vn -38.268343 -92.387953 0.000000
vn -19.509032 -98.078528 0.000000
vn -0.000000 -100.000000 0.000000
vn 19.509032 -98.078528 0.000000
vn 38.268343 -92.387953 0.000000
vn 55.557023 -83.146961 0.000000
vn 70.710678 -70.710678 0.000000
vn 83.146961 -55.557023 0.000000
vn 92.387953 -38.268343 0.000000
vn 100.000000 0.000000 0.000000
vn 100.000000 0.000000 0.000000
vn 99.766877 -6.824241 0.000000
vn 99.766877 -6.824241 0.000000
vn 100.000000 -0.000000 0.000000
vn 100.000000 -0.000000 0.000000
vn 99.766877 6.824241 0.000000
vn 99.766877 6.824241 0.000000
vn 99.068595 13.616665 0.000000
vn 99.068595 13.616665 0.000000
vn 97.908409 20.345601 0.000000
vn 97.908409 20.345601 0.000000
vn 96.291729 26.979677 0.000000
vn 96.291729 26.979677 0.000000
vn 94.226092 33.487961 0.000000
vn 94.226092 33.487961 0.000000
vn 91.721130 39.840109 0.000000
vn 91.721130 39.840109 0.000000
vn 88.788522 46.006504 0.000000
vn 88.788522 46.006504 0.000000
vn 85.441940 51.958395 0.000000
vn 85.441940 51.958395 0.000000
vn 81.696989 57.668032 0.000000
vn 81.696989 57.668032 0.000000
vn 77.571129 63.108794 0.000000
vn 77.571129 63.108794 0.000000
vn 73.083596 68.255314 0.000000
vn 73.083596 68.255314 0.000000
vn 68.255314 73.083596 0.000000
vn 68.255314 73.083596 0.000000
vn 63.108794 77.571129 0.000000
vn 63.108794 77.571129 0.000000
vn 57.668032 81.696989 0.000000
vn 57.668032 81.696989 0.000000
vn 51.958395 85.441940 0.000000
vn 51.958395 85.441940 0.000000
vn 46.006504 88.788522 0.000000
vn 46.006504 88.788522 0.000000
vn 39.840109 91.721130 0.000000
vn 39.840109 91.721130 0.000000
vn 33.487961 94.226092 0.000000
vn 33.487961 94.226092 0.000000
vn 26.979677 96.291729 0.000000
vn 26.979677 96.291729 0.000000
vn 20.345601 97.908409 0.000000
vn 20.345601 97.908409 0.000000
vn 13.616665 99.068595 0.000000
vn 13.616665 99.068595 0.000000
vn 6.824241 99.766877 0.000000
vn 6.824241 99.766877 0.000000
vn -0.000000 100.000000 -0.000000
vn -0.000000 100.000000 -0.000000
vn -6.824241 99.766877 -0.000000
vn -6.824241 99.766877 -0.000000
vn -13.616665 99.068595 -0.000000
vn -13.616665 99.068595 -0.000000
vn -20.345601 97.908409 -0.000000
vn -20.345601 97.908409 -0.000000
vn -26.979677 96.291729 -0.000000
vn -26.979677 96.291729 -0.000000
vn -33.487961 94.226092 -0.000000
vn -33.487961 94.226092 -0.000000
vn -39.840109 91.721130 -0.000000
vn -39.840109 91.721130 -0.000000
vn -46.006504 88.788522 -0.000000
vn -46.006504 88.788522 -0.000000
vn -51.958395 85.441940 -0.000000
vn -51.958395 85.441940 -0.000000
vn -57.668032 81.696989 -0.000000
vn -57.668032 81.696989 -0.000000
vn -63.108794 77.571129 -0.000000
vn -63.108794 77.571129 -0.000000
vn -68.255314 73.083596 -0.000000
vn -68.255314 73.083596 -0.000000
vn -73.083596 68.255314 -0.000000
vn -73.083596 68.255314 -0.000000
vn -77.571129 63.108794 -0.000000
vn -77.571129 63.108794 -0.000000
vn -81.696989 57.668032 -0.000000
vn -81.696989 57.668032 -0.000000
vn -85.441940 51.958395 -0.000000
vn -85.441940 51.958395 -0.000000
vn -88.788522 46.006504 -0.000000
vn -88.788522 46.006504 -0.000000
vn -91.721130 39.840109 -0.000000
vn -91.721130 39.840109 -0.000000
vn -94.226092 33.487961 -0.000000
vn -94.226092 33.487961 -0.000000
vn -96.291729 26.979677 -0.000000
vn -96.291729 26.979677 -0.000000
vn -97.908409 20.345601 -0.000000
vn -97.908409 20.345601 -0.000000
vn -99.068595 13.616665 -0.000000
vn -99.068595 13.616665 -0.000000
vn -99.766877 6.824241 -0.000000
vn -99.766877 6.824241 -0.000000
vn -100.000000 0.000000 0.000000
vn -100.000000 0.000000 0.000000
vn -99.766877 -6.824241 0.000000
vn -99.766877 -6.824241 0.000000
vn -99.068595 -13.616665 0.000000
vn -99.068595 -13.616665 0.000000
vn -97.908409 -20.345601 0.000000
vn -97.908409 -20.345601 0.000000
vn -96.291729 -26.979677 0.000000
vn -96.291729 -26.979677 0.000000
vn -94.226092 -33.487961 0.000000
vn -94.226092 -33.487961 0.000000
vn -91.721130 -39.840109 0.000000
vn -91.721130 -39.840109 0.000000
vn -88.788522 -46.006504 0.000000
vn -88.788522 -46.006504 0.000000
vn -85.441940 -51.958395 0.000000
vn -85.441940 -51.958395 0.000000
vn -81.696989 -57.668032 0.000000
vn -81.696989 -57.668032 0.000000
vn -77.571129 -63.108794 0.000000
vn -77.571129 -63.108794 0.000000
vn -73.083596 -68.255314 0.000000
vn -73.083596 -68.255314 0.000000
vn -68.255314 -73.083596 0.000000
vn -68.255314 -73.083596 0.000000
vn -63.108794 -77.571129 0.000000
vn -63.108794 -77.571129 0.000000
vn -57.668032 -81.696989 0.000000
vn -57.668032 -81.696989 0.000000
vn -51.958395 -85.441940 0.000000
vn -51.958395 -85.441940 0.000000
vn -46.006504 -88.788522 0.000000
vn -46.006504 -88.788522 0.000000
vn -39.840109 -91.721130 0.000000
vn -39.840109 -91.721130 0.000000
vn -33.487961 -94.226092 0.000000
vn -33.487961 -94.226092 0.000000
vn -26.979677 -96.291729 0.000000
vn -26.979677 -96.291729 0.000000
vn -20.345601 -97.908409 0.000000
vn -20.345601 -97.908409 0.000000
vn -13.616665 -99.068595 0.000000
vn -13.616665 -99.068595 0.000000
vn -6.824241 -99.766877 0.000000
vn -6.824241 -99.766877 0.000000
vn -0.000000 -100.000000 0.000000
vn -0.000000 -100.000000 0.000000
vn 6.824241 -99.766877 0.000000
vn 6.824241 -99.766877 0.000000
vn 13.616665 -99.068595 0.000000
vn 13.616665 -99.068595 0.000000
vn 20.345601 -97.908409 0.000000
vn 20.345601 -97.908409 0.000000
vn 26.979677 -96.291729 0.000000
vn 26.979677 -96.291729 0.000000
vn 33.487961 -94.226092 0.000000
vn 33.487961 -94.226092 0.000000
vn 39.840109 -91.721130 0.000000
vn 39.840109 -91.721130 0.000000
vn 46.006504 -88.788522 0.000000
vn 46.006504 -88.788522 0.000000
vn 51.958395 -85.441940 0.000000
vn 51.958395 -85.441940 0.000000
vn 57.668032 -81.696989 0.000000
vn 57.668032 -81.696989 0.000000
vn 63.108794 -77.571129 0.000000
vn 63.108794 -77.571129 0.000000
vn 68.255314 -73.083596 0.000000
vn 68.255314 -73.083596 0.000000
vn 73.083596 -68.255314 0.000000
vn 73.083596 -68.255314 0.000000
vn 77.571129 -63.108794 0.000000
vn 77.571129 -63.108794 0.000000
vn 81.696989 -57.668032 0.000000
vn 81.696989 -57.668032 0.000000
vn 85.441940 -51.958395 0.000000
vn 85.441940 -51.958395 0.000000
vn 88.788522 -46.006504 0.000000
vn 88.788522 -46.006504 0.000000
vn 91.721130 -39.840109 0.000000
vn 91.721130 -39.840109 0.000000
vn 94.226092 -33.487961 0.000000
vn 94.226092 -33.487961 0.000000
vn 96.291729 -26.979677 0.000000
vn 96.291729 -26.979677 0.000000
vn 97.908409 -20.345601 0.000000
vn 97.908409 -20.345601 0.000000
vn 99.068595 -13.616665 0.000000
vn 99.068595 -13.616665 0.000000
vn 0.000000 0.000000 100.000000
vn 0.000000 0.000000 100.000000
vn 0.000000 0.000000 100.000000
vn 0.000000 0.000000 100.000000
vn 0.000000 0.000000 100.000000
vn 0.000000 0.000000 100.000000
vn 0.000000 0.000000 100.000000
vn 0.000000 0.000000 100.000000
vn 0.000000 0.000000 100.000000
vn 0.000000 0.000000 100.000000
vn 0.000000 0.000000 100.000000
vn 0.000000 0.000000 100.000000
vn 0.000000 0.000000 100.000000
vn 0.000000 0.000000 100.000000
vn 0.000000 0.000000 100.000000
vn 0.000000 0.000000 100.000000
vn 0.000000 0.000000 100.000000
vn 0.000000 0.000000 100.000000
vn 0.000000 0.000000 100.000000
vn 0.000000 0.000000 100.000000
vn 0.000000 0.000000 100.000000
vn 0.000000 0.000000 100.000000
vn 0.000000 0.000000 100.000000
vn 0.000000 0.000000 100.000000
vn 0.000000 0.000000 100.000000
vn 0.000000 0.000000 100.000000
vn 0.000000 0.000000 100.000000
vn 0.000000 0.000000 100.000000
vn 0.000000 0.000000 100.000000
vn 0.000000 0.000000 100.000000
vn 0.000000 0.000000 100.000000
vn 0.000000 0.000000 100.000000
vn 0.000000 0.000000 100.000000
vn 0.000000 0.000000 100.000000
vn 0.000000 0.000000 100.000000
vn 0.000000 0.000000 100.000000
vn 0.000000 0.000000 100.000000
vn 0.000000 0.000000 100.000000
vn 0.000000 0.000000 100.000000
vn 0.000000 0.000000 100.000000
vn 0.000000 0.000000 100.000000
vn 0.000000 0.000000 100.000000
vn 0.000000 0.000000 100.000000
vn 0.000000 0.000000 100.000000
vn 0.000000 0.000000 100.000000
vn 0.000000 0.000000 100.000000
vn 0.000000 0.000000 100.000000
vn 0.000000 0.000000 100.000000
vn 0.000000 0.000000 100.000000
vn 0.000000 0.000000 100.000000
vn 0.000000 0.000000 100.000000
vn 0.000000 0.000000 100.000000
vn 0.000000 0.000000 100.000000
vn 0.000000 0.000000 100.000000
vn 0.000000 0.000000 100.000000
vn 0.000000 0.000000 100.000000
vn 0.000000 0.000000 100.000000
vn 0.000000 0.000000 100.000000
vn 0.000000 0.000000 100.000000
vn 0.000000 0.000000 100.000000
vn 0.000000 0.000000 100.000000
vn 0.000000 0.000000 100.000000
vn 0.000000 0.000000 100.000000
vn 0.000000 0.000000 100.000000
vn 0.000000 0.000000 100.000000
vn 0.000000 0.000000 100.000000
vn 0.000000 0.000000 100.000000
vn 0.000000 0.000000 100.000000
vn 0.000000 0.000000 100.000000
vn 0.000000 0.000000 100.000000
vn 0.000000 0.000000 100.000000
vn 0.000000 0.000000 100.000000
vn 0.000000 0.000000 100.000000
vn 0.000000 0.000000 100.000000
vn 0.000000 0.000000 100.000000
vn 0.000000 0.000000 100.000000
vn 0.000000 0.000000 100.000000
vn 0.000000 0.000000 100.000000
vn 0.000000 0.000000 100.000000
vn 0.000000 0.000000 100.000000
vn 0.000000 0.000000 100.000000
vn 0.000000 0.000000 100.000000
vn 0.000000 0.000000 100.000000
vn 0.000000 0.000000 100.000000
vn 0.000000 0.000000 100.000000
vn 0.000000 0.000000 100.000000
vn 0.000000 0.000000 100.000000
vn 0.000000 0.000000 100.000000
vn 0.000000 0.000000 100.000000
vn 0.000000 0.000000 100.000000
vn 0.000000 0.000000 100.000000
vn 0.000000 0.000000 100.000000
vn 0.000000 0.000000 100.000000
vn 0.000000 0.000000 100.000000
vn 0.000000 0.000000 100.000000
vn 0.000000 0.000000 100.000000
vn 0.000000 0.000000 100.000000
vn 0.000000 0.000000 100.000000
vn 0.000000 0.000000 100.000000
vn 0.000000 0.000000 100.000000
vn 0.000000 0.000000 100.000000
vn 0.000000 0.000000 100.000000
vn 0.000000 0.000000 100.000000
vn 0.000000 0.000000 100.000000
vn 0.000000 0.000000 100.000000
vn 0.000000 0.000000 100.000000
vn 0.000000 0.000000 100.000000
vn 0.000000 0.000000 100.000000
vn 0.000000 0.000000 100.000000
vn 0.000000 0.000000 100.000000
vn 0.000000 0.000000 100.000000
vn 0.000000 0.000000 100.000000
vn 0.000000 0.000000 100.000000
vn 0.000000 0.000000 100.000000
vn 0.000000 0.000000 100.000000
vn 0.000000 0.000000 100.000000
vn 0.000000 0.000000 100.000000
vn 0.000000 0.000000 100.000000
vn 0.000000 0.000000 100.000000
vn -100.000000 0.000000 0.000000
vn -100.000000 0.000000 0.000000
vn -100.000000 0.000000 0.000000
vn -100.000000 0.000000 0.000000
vn -0.000000 -100.000000 0.000000
vn -0.000000 -100.000000 0.000000
vn -0.000000 -100.000000 0.000000
vn -0.000000 -100.000000 0.000000
vn 100.000000 0.000000 0.000000
vn 100.000000 0.000000 0.000000
vn 100.000000 0.000000 0.000000
vn 100.000000 0.000000 0.000000
vn 0.000000 100.000000 0.000000
vn 0.000000 100.000000 0.000000
vn 0.000000 100.000000 0.000000
vn 0.000000 100.000000 0.000000
vn 0.000000 0.000000 100.000000
vn 0.000000 0.000000 100.000000
vn 0.000000 0.000000 100.000000
vn 0.000000 0.000000 100.000000
vn 0.000000 0.000000 100.000000
vn 0.000000 0.000000 100.000000
vn 0.000000 0.000000 100.000000
vn 0.000000 0.000000 100.000000
vn 0.000000 0.000000 100.000000
vn 0.000000 0.000000 100.000000
vn 0.000000 0.000000 100.000000
vn 0.000000 0.000000 100.000000
vn 0.000000 0.000000 100.000000
vn 0.000000 0.000000 100.000000
vn 0.000000 0.000000 100.000000
vn 0.000000 0.000000 100.000000
vn 0.000000 0.000000 100.000000
vn 0.000000 0.000000 100.000000
vn 0.000000 0.000000 100.000000
vn 0.000000 0.000000 100.000000
vn 0.000000 0.000000 100.000000
vn 0.000000 0.000000 100.000000
vn 0.000000 0.000000 100.000000
vn 0.000000 0.000000 100.000000
vn 0.000000 0.000000 100.000000
vn 0.000000 0.000000 100.000000
vn 0.000000 0.000000 100.000000
vn 0.000000 0.000000 100.000000
vn 0.000000 0.000000 100.000000
vn 0.000000 0.000000 100.000000
vn 0.000000 0.000000 100.000000
vn 0.000000 0.000000 100.000000
vn 0.000000 0.000000 100.000000
vn 0.000000 0.000000 100.000000
vn 0.000000 0.000000 100.000000
vn 0.000000 0.000000 100.000000
vn 0.000000 0.000000 100.000000
vn 0.000000 0.000000 100.000000
vn 0.000000 0.000000 100.000000
vn 0.000000 0.000000 100.000000
vn 0.000000 0.000000 100.000000
vn 0.000000 0.000000 100.000000
vn 0.000000 0.000000 100.000000
vn 0.000000 0.000000 100.000000
vn 0.000000 0.000000 100.000000
vn 0.000000 0.000000 100.000000
vn 0.000000 0.000000 100.000000
vn 0.000000 0.000000 100.000000
vn 0.000000 0.000000 100.000000
vn 0.000000 0.000000 100.000000
vn 0.000000 0.000000 100.000000
vn 0.000000 0.000000 100.000000
vn 0.000000 0.000000 100.000000
vn 0.000000 0.000000 100.000000
vn 0.000000 0.000000 100.000000
vn 0.000000 0.000000 100.000000
vn 0.000000 0.000000 100.000000
vn 0.000000 0.000000 100.000000
vn 0.000000 0.000000 100.000000
vn 0.000000 0.000000 100.000000
vn 0.000000 0.000000 100.000000
vn 0.000000 0.000000 100.000000
vn 0.000000 0.000000 100.000000
vn 0.000000 0.000000 100.000000
vn 0.000000 0.000000 100.000000
vn 0.000000 0.000000 100.000000
vn 0.000000 0.000000 100.000000
vn 0.000000 0.000000 100.000000
vn 0.000000 0.000000 100.000000
vn 0.000000 0.000000 100.000000
vn 0.000000 0.000000 100.000000
vn 0.000000 0.000000 100.000000
vn 0.000000 0.000000 100.000000
vn 0.000000 0.000000 100.000000
vn 0.000000 0.000000 100.000000
vn 0.000000 0.000000 100.000000
vn 0.000000 0.000000 100.000000
vn 0.000000 0.000000 100.000000
vn 0.000000 0.000000 100.000000
vn 0.000000 0.000000 100.000000
vn 0.000000 0.000000 100.000000
vn 0.000000 0.000000 100.000000
vn 0.000000 0.000000 100.000000
vn 0.000000 0.000000 100.000000
vn 0.000000 0.000000 100.000000
vn 0.000000 0.000000 100.000000
vn 0.000000 0.000000 100.000000
vn 0.000000 0.000000 100.000000
vn 0.000000 0.000000 100.000000
vn 0.000000 0.000000 100.000000
vn 0.000000 0.000000 100.000000
vn 0.000000 0.000000 100.000000
vn 0.000000 0.000000 100.000000
vn 0.000000 0.000000 100.000000
vn 0.000000 0.000000 100.000000
vn 0.000000 0.000000 100.000000
vn 0.000000 0.000000 -100.000000
vn 0.000000 0.000000 -100.000000
vn 0.000000 0.000000 -100.000000
vn 0.000000 0.000000 -100.000000
vn 0.000000 0.000000 -100.000000
vn 0.000000 0.000000 -100.000000
vn 0.000000 0.000000 -100.000000
vn 0.000000 0.000000 -100.000000
usemtl Steel_-_Satin
f 1/1/1 2/2/2 4/3/3
f 4/3/3 2/2/2 3/4/4
f 5/5/5 1/6/6 6/7/7
f 6/7/7 1/6/6 4/8/8
f 7/9/9 5/10/10 8/11/11
f 8/11/11 5/10/10 6/12/12
f 2/13/13 7/14/14 3/15/15
f 3/15/15 7/14/14 8/16/16
f 12/17/17 9/18/18 6/19/19
f 6/19/19 9/18/18 10/20/20
f 6/19/19 10/20/20 8/21/21
f 8/21/21 10/20/20 29/22/22
f 8/21/21 29/22/22 30/23/23
f 11/24/24 27/25/25 10/20/20
f 10/20/20 27/25/25 28/26/26
f 10/20/20 28/26/26 29/22/22
f 12/17/17 33/27/27 11/24/24
f 11/24/24 33/27/27 21/28/28
f 11/24/24 21/28/28 22/29/29
f 31/30/30 13/31/31 3/32/32
f 3/32/32 13/31/31 14/33/33
f 3/32/32 14/33/33 34/34/34
f 34/34/34 14/33/33 15/35/35
f 34/34/34 15/35/35 16/36/36
f 34/34/34 16/36/36 33/27/27
f 33/27/27 16/36/36 17/37/37
f 33/27/27 17/37/37 18/38/38
f 18/38/38 19/39/39 33/27/27
f 33/27/27 19/39/39 20/40/40
f 33/27/27 20/40/40 21/28/28
f 22/29/29 23/41/41 11/24/24
f 11/24/24 23/41/41 24/42/42
f 11/24/24 24/42/42 25/43/43
f 25/43/43 26/44/44 11/24/24
f 11/24/24 26/44/44 27/25/25
f 30/23/23 31/30/30 8/21/21
f 8/21/21 31/30/30 3/32/32
f 33/27/27 12/17/17 32/45/45
f 32/45/45 12/17/17 4/46/46
f 32/45/45 4/46/46 35/47/47
f 35/47/47 4/46/46 34/34/34
f 34/34/34 4/46/46 3/32/32
f 6/19/19 4/46/46 12/17/17
f 36/48/48 37/49/49 9/50/50
f 9/50/50 37/49/49 10/51/51
f 37/52/52 38/53/53 10/54/54
f 10/54/54 38/53/53 11/55/55
f 38/56/56 39/57/57 11/58/58
f 11/58/58 39/57/57 12/59/59
f 39/60/60 36/61/61 12/62/62
f 12/62/62 36/61/61 9/63/63
f 40/64/64 41/65/65 32/66/66
f 32/66/66 41/65/65 33/67/67
f 41/68/68 42/69/69 33/70/70
f 33/70/70 42/69/69 34/71/71
f 42/72/72 43/73/73 34/74/74
f 34/74/74 43/73/73 35/75/75
f 43/76/76 40/77/77 35/78/78
f 35/78/78 40/77/77 32/79/79
f 44/80/80 45/81/81 30/82/82
f 30/82/82 45/81/81 31/83/83
f 45/84/84 46/85/85 31/86/86
f 31/86/86 46/85/85 13/87/87
f 46/85/85 64/88/88 13/89/87
f 13/89/87 64/88/88 65/90/89
f 13/89/87 65/90/89 14/91/90
f 14/91/90 65/90/89 15/92/91
f 15/92/91 65/90/89 68/93/92
f 15/92/91 68/93/92 16/94/93
f 16/94/93 68/93/92 71/95/94
f 16/94/93 71/95/94 17/96/95
f 17/96/95 71/95/94 74/97/96
f 17/96/95 74/97/96 18/98/97
f 18/98/97 74/97/96 77/99/98
f 18/98/97 77/99/98 19/100/99
f 19/100/99 77/99/98 80/101/100
f 19/100/99 80/101/100 20/102/101
f 20/102/101 80/101/100 83/103/102
f 20/102/101 83/103/102 21/104/103
f 21/104/103 83/103/102 86/105/104
f 21/104/103 86/105/104 22/106/105
f 22/106/105 86/105/104 89/107/106
f 22/106/105 89/107/106 23/108/107
f 23/108/107 89/107/106 92/109/108
f 23/108/107 92/109/108 24/110/109
f 24/110/109 92/109/108 95/111/110
f 24/110/109 95/111/110 25/112/111
f 25/112/111 95/111/110 98/113/112
f 25/112/111 98/113/112 26/114/113
f 26/114/113 98/113/112 101/115/114
f 26/114/113 101/115/114 27/116/115
f 27/116/115 101/115/114 104/117/116
f 27/116/115 104/117/116 28/118/117
f 28/118/117 104/117/116 107/119/118
f 28/118/117 107/119/118 29/120/119
f 29/120/119 107/119/118 106/121/120
f 29/120/119 106/121/120 62/122/121
f 62/122/121 106/121/120 105/123/122
f 62/122/121 105/123/122 61/124/123
f 61/124/123 105/123/122 60/125/124
f 60/125/124 105/123/122 102/126/125
f 60/125/124 102/126/125 59/127/126
f 59/127/126 102/126/125 99/128/127
f 59/127/126 99/128/127 58/129/128
f 58/129/128 99/128/127 96/130/129
f 58/129/128 96/130/129 57/131/130
f 57/131/130 96/130/129 93/132/131
f 57/131/130 93/132/131 56/133/132
f 56/133/132 93/132/131 90/134/133
f 56/133/132 90/134/133 55/135/134
f 55/135/134 90/134/133 87/136/135
f 55/135/134 87/136/135 54/137/136
f 54/137/136 87/136/135 84/138/137
f 54/137/136 84/138/137 53/139/138
f 53/139/138 84/138/137 81/140/139
f 53/139/138 81/140/139 52/141/140
f 52/141/140 81/140/139 78/142/141
f 52/141/140 78/142/141 51/143/142
f 51/143/142 78/142/141 75/144/143
f 51/143/142 75/144/143 50/145/144
f 50/145/144 75/144/143 72/146/145
f 50/145/144 72/146/145 49/147/146
f 49/147/146 72/146/145 69/148/147
f 49/147/146 69/148/147 48/149/148
f 48/149/148 69/148/147 66/150/149
f 48/149/148 66/150/149 47/151/150
f 47/151/150 66/150/149 63/152/151
f 47/151/150 63/152/151 46/153/85
f 46/153/85 63/152/151 64/88/88
f 68/93/92 65/90/89 64/88/88
f 64/88/88 63/152/151 67/154/152
f 67/154/152 63/152/151 66/150/149
f 67/154/152 66/150/149 70/155/153
f 70/155/153 66/150/149 69/148/147
f 70/155/153 69/148/147 73/156/154
f 73/156/154 69/148/147 72/146/145
f 73/156/154 72/146/145 76/157/155
f 76/157/155 72/146/145 75/144/143
f 76/157/155 75/144/143 79/158/156
f 79/158/156 75/144/143 78/142/141
f 79/158/156 78/142/141 82/159/157
f 82/159/157 78/142/141 81/140/139
f 82/159/157 81/140/139 85/160/158
f 85/160/158 81/140/139 84/138/137
f 85/160/158 84/138/137 88/161/159
f 88/161/159 84/138/137 87/136/135
f 88/161/159 87/136/135 91/162/160
f 91/162/160 87/136/135 90/134/133
f 91/162/160 90/134/133 94/163/161
f 94/163/161 90/134/133 93/132/131
f 94/163/161 93/132/131 97/164/162
f 97/164/162 93/132/131 96/130/129
f 97/164/162 96/130/129 100/165/163
f 100/165/163 96/130/129 99/128/127
f 100/165/163 99/128/127 103/166/164
f 103/166/164 99/128/127 102/126/125
f 103/166/164 102/126/125 106/121/120
f 106/121/120 102/126/125 105/123/122
f 71/95/94 68/93/92 67/154/152
f 67/154/152 68/93/92 64/88/88
f 71/95/94 67/154/152 70/155/153
f 74/97/96 71/95/94 70/155/153
f 74/97/96 70/155/153 73/156/154
f 77/99/98 74/97/96 73/156/154
f 77/99/98 73/156/154 76/157/155
f 80/101/100 77/99/98 76/157/155
f 80/101/100 76/157/155 79/158/156
f 83/103/102 80/101/100 79/158/156
f 83/103/102 79/158/156 82/159/157
f 86/105/104 83/103/102 82/159/157
f 86/105/104 82/159/157 85/160/158
f 89/107/106 86/105/104 85/160/158
f 89/107/106 85/160/158 88/161/159
f 92/109/108 89/107/106 88/161/159
f 92/109/108 88/161/159 91/162/160
f 95/111/110 92/109/108 91/162/160
f 95/111/110 91/162/160 94/163/161
f 98/113/112 95/111/110 94/163/161
f 98/113/112 94/163/161 97/164/162
f 101/115/114 98/113/112 97/164/162
f 101/115/114 97/164/162 100/165/163
f 104/117/116 101/115/114 100/165/163
f 104/117/116 100/165/163 103/166/164
f 107/119/118 104/117/116 103/166/164
f 107/119/118 103/166/164 106/121/120
f 62/167/121 44/168/165 29/169/119
f 29/169/119 44/168/165 30/170/166
f 109/171/167 291/172/168 108/173/169
f 108/173/169 291/172/168 200/174/170
f 108/175/169 200/176/170 199/177/171
f 199/177/171 200/176/170 201/178/172
f 199/177/171 201/178/172 198/179/173
f 198/179/173 201/178/172 202/180/174
f 198/179/173 202/180/174 197/181/175
f 197/181/175 202/180/174 203/182/176
f 197/181/175 203/182/176 196/183/177
f 196/183/177 203/182/176 204/184/178
f 196/183/177 204/184/178 195/185/179
f 195/185/179 204/184/178 205/186/180
f 195/185/179 205/186/180 194/187/181
f 194/187/181 205/186/180 206/188/182
f 194/187/181 206/188/182 193/189/183
f 193/189/183 206/188/182 207/190/184
f 193/189/183 207/190/184 192/191/185
f 192/191/185 207/190/184 208/192/186
f 192/191/185 208/192/186 191/193/187
f 191/193/187 208/192/186 209/194/188
f 191/193/187 209/194/188 190/195/189
f 190/195/189 209/194/188 210/196/190
f 190/195/189 210/196/190 189/197/191
f 189/197/191 210/196/190 211/198/192
f 189/197/191 211/198/192 188/199/193
f 188/199/193 211/198/192 212/200/194
f 188/199/193 212/200/194 187/201/195
f 187/201/195 212/200/194 213/202/196
f 187/201/195 213/202/196 186/203/197
f 186/203/197 213/202/196 214/204/198
f 186/203/197 214/204/198 185/205/199
f 185/205/199 214/204/198 215/206/200
f 185/205/199 215/206/200 184/207/201
f 184/207/201 215/206/200 216/208/202
f 184/207/201 216/208/202 183/209/203
f 183/209/203 216/208/202 217/210/204
f 183/209/203 217/210/204 182/211/205
f 182/211/205 217/210/204 218/212/206
f 182/211/205 218/212/206 181/213/207
f 181/213/207 218/212/206 219/214/208
f 181/213/207 219/214/208 180/215/209
f 180/215/209 219/214/208 220/216/210
f 180/215/209 220/216/210 179/217/211
f 179/217/211 220/216/210 221/218/212
f 179/217/211 221/218/212 178/219/213
f 178/219/213 221/218/212 222/220/214
f 178/219/213 222/220/214 177/221/215
f 177/221/215 222/220/214 223/222/216
f 177/221/215 223/222/216 176/223/217
f 176/223/217 223/222/216 224/224/218
f 176/223/217 224/224/218 175/225/219
f 175/225/219 224/224/218 225/226/220
f 175/225/219 225/226/220 174/227/221
f 174/227/221 225/226/220 226/228/222
f 174/227/221 226/228/222 173/229/223
f 173/229/223 226/228/222 227/230/224
f 173/229/223 227/230/224 172/231/225
f 172/231/225 227/230/224 228/232/226
f 172/231/225 228/232/226 171/233/227
f 171/233/227 228/232/226 229/234/228
f 171/233/227 229/234/228 170/235/229
f 170/235/229 229/234/228 230/236/230
f 170/235/229 230/236/230 169/237/231
f 169/237/231 230/236/230 231/238/232
f 169/237/231 231/238/232 168/239/233
f 168/239/233 231/238/232 232/240/234
f 168/239/233 232/240/234 167/241/235
f 167/241/235 232/240/234 233/242/236
f 167/241/235 233/242/236 166/243/237
f 166/243/237 233/242/236 234/244/238
f 166/243/237 234/244/238 165/245/239
f 165/245/239 234/244/238 235/246/240
f 165/245/239 235/246/240 164/247/241
f 164/247/241 235/246/240 236/248/242
f 164/247/241 236/248/242 163/249/243
f 163/249/243 236/248/242 237/250/244
f 163/249/243 237/250/244 162/251/245
f 162/251/245 237/250/244 238/252/246
f 162/251/245 238/252/246 161/253/247
f 161/253/247 238/252/246 239/254/248
f 161/253/247 239/254/248 160/255/249
f 160/255/249 239/254/248 240/256/250
f 160/255/249 240/256/250 159/257/251
f 159/257/251 240/256/250 241/258/252
f 159/257/251 241/258/252 158/259/253
f 158/259/253 241/258/252 242/260/254
f 158/259/253 242/260/254 157/261/255
f 157/261/255 242/260/254 243/262/256
f 157/261/255 243/262/256 156/263/257
f 156/263/257 243/262/256 244/264/258
f 156/263/257 244/264/258 155/265/259
f 155/265/259 244/264/258 245/266/260
f 155/265/259 245/266/260 154/267/261
f 154/267/261 245/266/260 246/268/262
f 154/267/261 246/268/262 153/269/263
f 153/269/263 246/268/262 247/270/264
f 153/269/263 247/270/264 152/271/265
f 152/271/265 247/270/264 248/272/266
f 152/271/265 248/272/266 151/273/267
f 151/273/267 248/272/266 249/274/268
f 151/273/267 249/274/268 150/275/269
f 150/275/269 249/274/268 250/276/270
f 150/275/269 250/276/270 149/277/271
f 149/277/271 250/276/270 251/278/272
f 149/277/271 251/278/272 148/279/273
f 148/279/273 251/278/272 252/280/274
f 148/279/273 252/280/274 147/281/275
f 147/281/275 252/280/274 253/282/276
f 147/281/275 253/282/276 146/283/277
f 146/283/277 253/282/276 254/284/278
f 146/283/277 254/284/278 145/285/279
f 145/285/279 254/284/278 255/286/280
f 145/285/279 255/286/280 144/287/281
f 144/287/281 255/286/280 256/288/282
f 144/287/281 256/288/282 143/289/283
f 143/289/283 256/288/282 257/290/284
f 143/289/283 257/290/284 142/291/285
f 142/291/285 257/290/284 258/292/286
f 142/291/285 258/292/286 141/293/287
f 141/293/287 258/292/286 259/294/288
f 141/293/287 259/294/288 140/295/289
f 140/295/289 259/294/288 260/296/290
f 140/295/289 260/296/290 139/297/291
f 139/297/291 260/296/290 261/298/292
f 139/297/291 261/298/292 138/299/293
f 138/299/293 261/298/292 262/300/294
f 138/299/293 262/300/294 137/301/295
f 137/301/295 262/300/294 263/302/296
f 137/301/295 263/302/296 136/303/297
f 136/303/297 263/302/296 264/304/298
f 136/303/297 264/304/298 135/305/299
f 135/305/299 264/304/298 265/306/300
f 135/305/299 265/306/300 134/307/301
f 134/307/301 265/306/300 266/308/302
f 134/307/301 266/308/302 133/309/303
f 133/309/303 266/308/302 267/310/304
f 133/309/303 267/310/304 132/311/305
f 132/311/305 267/310/304 268/312/306
f 132/311/305 268/312/306 131/313/307
f 131/313/307 268/312/306 269/314/308
f 131/313/307 269/314/308 130/315/309
f 130/315/309 269/314/308 270/316/310
f 130/315/309 270/316/310 129/317/311
f 129/317/311 270/316/310 271/318/312
f 129/317/311 271/318/312 128/319/313
f 128/319/313 271/318/312 272/320/314
f 128/319/313 272/320/314 127/321/315
f 127/321/315 272/320/314 273/322/316
f 127/321/315 273/322/316 126/323/317
f 126/323/317 273/322/316 274/324/318
f 126/323/317 274/324/318 125/325/319
f 125/325/319 274/324/318 275/326/320
f 125/325/319 275/326/320 124/327/321
f 124/327/321 275/326/320 276/328/322
f 124/327/321 276/328/322 123/329/323
f 123/329/323 276/328/322 277/330/324
f 123/329/323 277/330/324 122/331/325
f 122/331/325 277/330/324 278/332/326
f 122/331/325 278/332/326 121/333/327
f 121/333/327 278/332/326 279/334/328
f 121/333/327 279/334/328 120/335/329
f 120/335/329 279/334/328 280/336/330
f 120/335/329 280/336/330 119/337/331
f 119/337/331 280/336/330 281/338/332
f 119/337/331 281/338/332 118/339/333
f 118/339/333 281/338/332 282/340/334
f 118/339/333 282/340/334 117/341/335
f 117/341/335 282/340/334 283/342/336
f 117/341/335 283/342/336 116/343/337
f 116/343/337 283/342/336 284/344/338
f 116/343/337 284/344/338 115/345/339
f 115/345/339 284/344/338 285/346/340
f 115/345/339 285/346/340 114/347/341
f 114/347/341 285/346/340 286/348/342
f 114/347/341 286/348/342 113/349/343
f 113/349/343 286/348/342 287/350/344
f 113/349/343 287/350/344 112/351/345
f 112/351/345 287/350/344 288/352/346
f 112/351/345 288/352/346 111/353/347
f 111/353/347 288/352/346 289/354/348
f 111/353/347 289/354/348 110/355/349
f 110/355/349 289/354/348 290/356/350
f 110/355/349 290/356/350 109/171/167
f 109/171/167 290/356/350 291/172/168
f 38/357/351 41/358/352 39/359/353
f 39/359/353 41/358/352 40/360/354
f 39/359/353 40/360/354 178/361/355
f 178/361/355 40/360/354 179/362/356
f 179/362/356 40/360/354 180/363/357
f 180/363/357 40/360/354 181/364/358
f 181/364/358 40/360/354 182/365/359
f 182/365/359 40/360/354 183/366/360
f 183/366/360 40/360/354 43/367/361
f 183/366/360 43/367/361 184/368/362
f 184/368/362 43/367/361 185/369/363
f 185/369/363 43/367/361 186/370/364
f 186/370/364 43/367/361 187/371/365
f 187/371/365 43/367/361 188/372/366
f 188/372/366 43/367/361 189/373/367
f 189/373/367 43/367/361 190/374/368
f 190/374/368 43/367/361 191/375/369
f 191/375/369 43/367/361 192/376/370
f 192/376/370 43/367/361 193/377/371
f 193/377/371 43/367/361 194/378/372
f 194/378/372 43/367/361 195/379/373
f 195/379/373 43/367/361 196/380/374
f 196/380/374 43/367/361 42/381/375
f 196/380/374 42/381/375 197/382/376
f 197/382/376 42/381/375 198/383/377
f 198/383/377 42/381/375 199/384/378
f 199/384/378 42/381/375 108/385/379
f 108/385/379 42/381/375 109/386/380
f 109/386/380 42/381/375 110/387/381
f 110/387/381 42/381/375 111/388/382
f 111/388/382 42/381/375 112/389/383
f 112/389/383 42/381/375 113/390/384
f 113/390/384 42/381/375 114/391/385
f 114/391/385 42/381/375 115/392/386
f 115/392/386 42/381/375 116/393/387
f 116/393/387 42/381/375 117/394/388
f 117/394/388 42/381/375 46/395/389
f 117/394/388 46/395/389 118/396/390
f 118/396/390 46/395/389 119/397/391
f 119/397/391 46/395/389 45/398/392
f 119/397/391 45/398/392 120/399/393
f 120/399/393 45/398/392 121/400/394
f 121/400/394 45/398/392 122/401/395
f 122/401/395 45/398/392 123/402/396
f 123/402/396 45/398/392 124/403/397
f 124/403/397 45/398/392 125/404/398
f 125/404/398 45/398/392 126/405/399
f 126/405/399 45/398/392 127/406/400
f 127/406/400 45/398/392 128/407/401
f 128/407/401 45/398/392 129/408/402
f 129/408/402 45/398/392 130/409/403
f 130/409/403 45/398/392 131/410/404
f 131/410/404 45/398/392 44/411/405
f 131/410/404 44/411/405 132/412/406
f 132/412/406 44/411/405 133/413/407
f 133/413/407 44/411/405 134/414/408
f 134/414/408 44/411/405 135/415/409
f 135/415/409 44/411/405 136/416/410
f 136/416/410 44/411/405 137/417/411
f 137/417/411 44/411/405 138/418/412
f 138/418/412 44/411/405 139/419/413
f 139/419/413 44/411/405 140/420/414
f 140/420/414 44/411/405 141/421/415
f 141/421/415 44/411/405 142/422/416
f 142/422/416 44/411/405 143/423/417
f 143/423/417 44/411/405 62/424/418
f 143/423/417 62/424/418 144/425/419
f 144/425/419 62/424/418 37/426/420
f 144/425/419 37/426/420 145/427/421
f 145/427/421 37/426/420 146/428/422
f 146/428/422 37/426/420 147/429/423
f 147/429/423 37/426/420 148/430/424
f 148/430/424 37/426/420 149/431/425
f 149/431/425 37/426/420 150/432/426
f 150/432/426 37/426/420 151/433/427
f 151/433/427 37/426/420 152/434/428
f 152/434/428 37/426/420 153/435/429
f 153/435/429 37/426/420 154/436/430
f 154/436/430 37/426/420 155/437/431
f 155/437/431 37/426/420 156/438/432
f 156/438/432 37/426/420 157/439/433
f 157/439/433 37/426/420 158/440/434
f 158/440/434 37/426/420 36/441/435
f 158/440/434 36/441/435 159/442/436
f 159/442/436 36/441/435 160/443/437
f 160/443/437 36/441/435 161/444/438
f 161/444/438 36/441/435 162/445/439
f 162/445/439 36/441/435 163/446/440
f 163/446/440 36/441/435 164/447/441
f 164/447/441 36/441/435 165/448/442
f 165/448/442 36/441/435 166/449/443
f 166/449/443 36/441/435 167/450/444
f 167/450/444 36/441/435 168/451/445
f 168/451/445 36/441/435 169/452/446
f 169/452/446 36/441/435 170/453/447
f 170/453/447 36/441/435 171/454/448
f 171/454/448 36/441/435 39/359/353
f 171/454/448 39/359/353 172/455/449
f 172/455/449 39/359/353 173/456/450
f 173/456/450 39/359/353 174/457/451
f 174/457/451 39/359/353 175/458/452
f 175/458/452 39/359/353 176/459/453
f 176/459/453 39/359/353 177/460/454
f 177/460/454 39/359/353 178/361/355
f 37/426/420 60/461/455 38/357/351
f 38/357/351 60/461/455 59/462/456
f 38/357/351 59/462/456 58/463/457
f 41/358/352 49/464/458 42/381/375
f 42/381/375 49/464/458 48/465/459
f 42/381/375 48/465/459 47/466/460
f 62/424/418 61/467/461 37/426/420
f 37/426/420 61/467/461 60/461/455
f 58/463/457 57/468/462 38/357/351
f 38/357/351 57/468/462 56/469/463
f 38/357/351 56/469/463 55/470/464
f 55/470/464 54/471/465 38/357/351
f 38/357/351 54/471/465 41/358/352
f 54/471/465 53/472/466 41/358/352
f 41/358/352 53/472/466 52/473/467
f 41/358/352 52/473/467 51/474/468
f 51/474/468 50/475/469 41/358/352
f 41/358/352 50/475/469 49/464/458
f 47/466/460 46/395/389 42/381/375
f 292/476/470 293/477/471 295/478/472
f 295/478/472 293/477/471 294/479/473
f 296/480/474 292/481/475 297/482/476
f 297/482/476 292/481/475 295/483/477
f 298/484/478 296/485/479 299/486/480
f 299/486/480 296/485/479 297/487/481
f 293/488/482 298/489/483 294/490/484
f 294/490/484 298/489/483 299/491/485
f 291/492/486 296/493/487 200/494/488
f 200/494/488 296/493/487 298/495/489
f 200/494/488 298/495/489 201/496/490
f 201/496/490 298/495/489 202/497/491
f 202/497/491 298/495/489 203/498/492
f 203/498/492 298/495/489 204/499/493
f 204/499/493 298/495/489 205/500/494
f 205/500/494 298/495/489 206/501/495
f 206/501/495 298/495/489 207/502/496
f 207/502/496 298/495/489 208/503/497
f 208/503/497 298/495/489 209/504/498
f 209/504/498 298/495/489 210/505/499
f 210/505/499 298/495/489 211/506/500
f 211/506/500 298/495/489 212/507/501
f 212/507/501 298/495/489 213/508/502
f 213/508/502 298/495/489 214/509/503
f 214/509/503 298/495/489 215/510/504
f 215/510/504 298/495/489 216/511/505
f 216/511/505 298/495/489 217/512/506
f 217/512/506 298/495/489 218/513/507
f 218/513/507 298/495/489 219/514/508
f 219/514/508 298/495/489 220/515/509
f 220/515/509 298/495/489 221/516/510
f 221/516/510 298/495/489 222/517/511
f 222/517/511 298/495/489 223/518/512
f 223/518/512 298/495/489 293/519/513
f 223/518/512 293/519/513 224/520/514
f 224/520/514 293/519/513 225/521/515
f 225/521/515 293/519/513 226/522/516
f 226/522/516 293/519/513 227/523/517
f 227/523/517 293/519/513 228/524/518
f 228/524/518 293/519/513 229/525/519
f 229/525/519 293/519/513 230/526/520
f 230/526/520 293/519/513 231/527/521
f 231/527/521 293/519/513 232/528/522
f 232/528/522 293/519/513 233/529/523
f 233/529/523 293/519/513 234/530/524
f 234/530/524 293/519/513 235/531/525
f 235/531/525 293/519/513 236/532/526
f 236/532/526 293/519/513 237/533/527
f 237/533/527 293/519/513 238/534/528
f 238/534/528 293/519/513 239/535/529
f 239/535/529 293/519/513 240/536/530
f 240/536/530 293/519/513 241/537/531
f 241/537/531 293/519/513 242/538/532
f 242/538/532 293/519/513 243/539/533
f 243/539/533 293/519/513 244/540/534
f 244/540/534 293/519/513 245/541/535
f 245/541/535 293/519/513 246/542/536
f 246/542/536 293/519/513 292/543/537
f 246/542/536 292/543/537 247/544/538
f 247/544/538 292/543/537 248/545/539
f 248/545/539 292/543/537 249/546/540
f 249/546/540 292/543/537 250/547/541
f 250/547/541 292/543/537 251/548/542
f 251/548/542 292/543/537 252/549/543
f 252/549/543 292/543/537 253/550/544
f 253/550/544 292/543/537 254/551/545
f 254/551/545 292/543/537 255/552/546
f 255/552/546 292/543/537 256/553/547
f 256/553/547 292/543/537 257/554/548
f 257/554/548 292/543/537 258/555/549
f 258/555/549 292/543/537 259/556/550
f 259/556/550 292/543/537 260/557/551
f 260/557/551 292/543/537 261/558/552
f 261/558/552 292/543/537 262/559/553
f 262/559/553 292/543/537 263/560/554
f 263/560/554 292/543/537 264/561/555
f 264/561/555 292/543/537 265/562/556
f 265/562/556 292/543/537 266/563/557
f 266/563/557 292/543/537 267/564/558
f 267/564/558 292/543/537 268/565/559
f 268/565/559 292/543/537 269/566/560
f 269/566/560 292/543/537 296/493/487
f 269/566/560 296/493/487 270/567/561
f 270/567/561 296/493/487 271/568/562
f 271/568/562 296/493/487 272/569/563
f 272/569/563 296/493/487 273/570/564
f 273/570/564 296/493/487 274/571/565
f 274/571/565 296/493/487 275/572/566
f 275/572/566 296/493/487 276/573/567
f 276/573/567 296/493/487 277/574/568
f 277/574/568 296/493/487 278/575/569
f 278/575/569 296/493/487 279/576/570
f 279/576/570 296/493/487 280/577/571
f 280/577/571 296/493/487 281/578/572
f 281/578/572 296/493/487 282/579/573
f 282/579/573 296/493/487 283/580/574
f 283/580/574 296/493/487 284/581/575
f 284/581/575 296/493/487 285/582/576
f 285/582/576 296/493/487 286/583/577
f 286/583/577 296/493/487 287/584/578
f 287/584/578 296/493/487 288/585/579
f 288/585/579 296/493/487 289/586/580
f 289/586/580 296/493/487 290/587/581
f 290/587/581 296/493/487 291/492/486
f 1/588/582 297/589/583 2/590/584
f 2/590/584 297/589/583 295/591/585
f 2/590/584 295/591/585 7/592/586
f 7/592/586 295/591/585 5/593/587
f 5/593/587 295/591/585 294/594/588
f 5/593/587 294/594/588 299/595/589
f 297/589/583 1/588/582 299/595/589
f 299/595/589 1/588/582 5/593/587
# 299 vertices
# 595 texture params
# 589 normals
# 606 facets

# 1 groups
